<?xml version="1.0"?>
<svg xmlns:rdf="http://www.w3.org/1999/02/22-rdf-syntax-ns#" xmlns="http://www.w3.org/2000/svg" xmlns:cc="http://web.resource.org/cc/" xmlns:xlink="http://www.w3.org/1999/xlink" xmlns:dc="http://purl.org/dc/elements/1.1/" xmlns:svg="http://www.w3.org/2000/svg" id="&#x5716;&#x5C64;_1" version="1.1" xml:space="preserve" viewBox="0 0 278.959 267.387" enable-background="new 0 0 278.959 267.387" y="0px" x="0px">
		<linearGradient id="SVGID_1_" x1="121.27" gradientUnits="userSpaceOnUse" y1="228.58" gradientTransform="matrix(1 0 0 -1 8.48 252.07)" x2="171.18" y2="175.69">
		<stop stop-color="#E8C3B9" offset="0"/>
		<stop stop-color="#D69E90" offset="1"/>
	</linearGradient>
	<path d="m113.78 107.94l-0.746-16.75-8.032 7.975v3.854l7.269 18.333s-15.356 8.992-15.375 11.003c-2.153 1.95-5.433 7.046-6.581 11.112-9.253 3.641-12.127 5.94-12.127 5.94-3.562-4.412-9.061-10.294-11.792-16.719-3.313-7.792-4.358-16.604-5.024-19.867-0.987-4.839-1.031-3.626-2.024-15.577-0.786-9.459 29.959-41.852 34.298-47.305 4.293-5.396 12.796-25.729 17.417-30.001 2.961-2.738 39.34-2.896 41.685-2.926 2.644-0.034 68.539-6.515 69.981-9.064 4.891-1.345 8.434-2.62 13.325-3.957 3.316-0.906 6.021-2.079 10.25-2.951h32.655c-0.03 2.87 0.004 59.148 0.004 59.148l-34.066 22.625-14.289 16.34-9.871 7.979-10.34 5.553-12.648 4.157-0.227 3.222-1.625 2.875-2.213 1.51-11.718 0.066-21.23 13.46s-11.997 7.458-21.219 12.372c-2.942 0.963-10.519 1.114-10.519 1.114l-2.319 5.364s-7.85 4.949-9.25 5.197c-2.343 0.414-7.362-5.632-7.362-5.632s-9.694 1.793-12.094 0.396c-3.827-1.025-6.884-4.415-7.543-8.076-1.017-5.645 1.063-10.938 4.774-14.998 4.909-5.368 11.559-8.46 17.728-12.699 3.709-2.262 12.154-4.521 12.154-4.521l1.51-1.031" fill="url(#SVGID_1_)"/>
		<linearGradient id="SVGID_2_" x1="68.467" gradientUnits="userSpaceOnUse" y1="145.5" gradientTransform="matrix(1 0 0 -1 8.48 252.07)" x2="270.49" y2="145.5">
		<stop stop-color="#AF7D74" offset="0"/>
		<stop stop-color="#965B54" offset="1"/>
	</linearGradient>
	<path fill="url(#SVGID_2_)" display="none" d="m94.738 155.17c-0.563-0.007-3.099 3.346-3.661 3.338 0.648-2.821-0.734-5.358-1.09-8.037-0.83-6.241-1.949-12.496-0.772-18.829 0.119-0.641-0.174-1.115-0.682-1.459-0.905-0.612-1.791-0.824-2.947-0.462-1.662 0.521-3.532-0.063-4.405-1.277-0.875-1.218 1.417-1.345 1.84-2.404 0.305-0.765 1.091-1.322 1.509-2.059 0.696-1.226 2.62-2.615-0.315-3.604-0.55-0.186-0.662-0.93-0.597-1.512 0.149-1.341-0.515-2.019-1.631-2.679-1.209-0.716-2.173-1.835-3.298-2.708-0.606-0.472-0.971-0.933-0.535-1.666 0.397-0.671 1.027-0.85 1.729-0.578 0.729 0.281 1.452 0.528 2.214 0.22 0.607-0.245 1.341-0.442 1.387-1.261 0.039-0.698-0.295-1.644-0.837-1.684-2.196-0.159-2.735-2.546-4.563-3.158-0.746-0.249-1.317-0.976-1.085-1.783 0.236-0.82 1.148-0.581 1.748-0.521 2.658 0.272 4.741-0.536 6.646-2.518 1.138-1.183 3.135-1.473 3.369-3.616 0.084-0.77 1.076-0.59 1.659-0.848 4.151-1.838 7.825-4.214 10.863-7.772 1.14-1.335 0.645-3.754 2.916-4.151 0.384 0.2 0.768 0.399 1.152 0.601 0.806 1.691 1.644 1.532 2.424 0.003 0.505-0.991 0.733-2.198 2.183-2.273 3.891-0.205 6.228-2.132 6.797-6.077 0.092-0.637 0.42-1.238 0.64-1.855 1.754 2.08 2.674 4.739 4.634 6.677 2.038 2.795 5.108 4.124 8.032 5.662 2.483 3.225 5.628 5.807 8.433 8.717-0.002 0-0.068 0.114-0.068 0.114l0.097-0.088c0.58 0.319 1.161 0.64 1.743 0.958 0.814 1.002 1.735 1.869 2.953 2.369 0.657 1.813 1.315 3.625 1.975 5.438 0.35 0.96-0.11 1.604-0.834 2.146-2.821-0.378-4.771 1.458-6.803 2.868-1.088 0.755-1.712 2.085-0.497 3.426-0.953 1.15-2.05 1.945-3.672 1.762-1.935-0.218-3.385 1.109-5.064 1.708-0.407-0.035-1.492-0.123-1.898-0.156-1.61-1.059-3.256-2.158-5.031-2.735-4.071-1.327-7.205-2.909-8.109-7.055-0.379-1.739-0.217-3.649-0.25-5.446-0.058-3.13-0.001-6.977-0.001-10.599-2.251 2.83-3.472 5.016-5.93 7.307-2.779 2.59-2.079 4.631-1.333 7.083 1.78 5.861 4.2 11.032 6.5 16.659-5.855 4.144-10.933 7.782-15.842 13.149-3.711 4.061-6.097 8.672-5.08 14.315 0.66 3.661 2.764 6.396 6.59 7.421 2.865 1.63 9.008 1.017 10.848-1.46 0.938-1.262 3.234-1.979 2.552-4.037-0.351-1.057-1.023-2.005 0.077-2.717 1.066-0.691 2.217-1.164 3.689-0.271 1.282 0.779 3.2 1.604 4.405 1.181 2.143-0.752 4.392-0.722 6.477-1.025 5.956-0.87 10.847-1.396 15.347-4.842 3.26-2.496 13.073-7.797 14.042-8.946 0.291-0.345 6.136-2.188 9.256-3.976 1.798-1.03 3.229-3.223 5.326-4.303 0.505-0.262 0.683-0.654 0.659-1.147-0.074-1.479 0.711-1.663 2.025-1.994 1.146-0.289 2.275-0.696 3.498-0.891 4.672-0.745 5.66-1.907 6.028-6.709 0.019-0.244 0.147-0.48 0.168-0.544 0.983-0.521 0.863 1.504 1.905 0.571 0.582-0.521-0.338-1.789 0.874-2.026 1.034 0.631-0.368 1.898 0.706 2.483 3.021-1.729 5.333-4.478 8.775-5.426 0.395-0.107 0.879-0.597 0.969-0.989 0.64-2.791 3.26-3.294 5.17-3.479 3.84-0.372 6.957-1.547 10.097-3.902 6.683-5.016 13.679-9.592 19.008-16.189 0.546-0.677 1.655-1.313 2.569-0.596 2.128 1.675 3.091 0.131 4.027-1.352 1.705-2.695 2.679-6.142 6.924-5.973 0.582 0.022 1.224-0.811 1.798-1.295 0.733-0.622 1.526-1.449 2.476-1.218 1.877 0.461 2.235-0.617 2.732-2 0.589-1.637 1.499-3.133 3.386-1.135 0.716 0.758 1.233 0.313 1.644-0.21 1.83-2.325 4.238-4.021 6.58-5.699 2.097-1.502 3.77-3.646 6.039-4.702 2.293-1.067 3.769-2.596 5.186-4.563 1.514-2.102 3.271-4.094 5.65-5.354 0.326 8.997 0.433 9.167-6.776 13.648-7.22 4.487-13.454 10.353-20.847 14.559-5.793 3.298-10.396 7.976-14.395 13.12-8.631 11.112-19.092 19.503-32.947 22.825-1.744 0.418-5.677 1.188-5.677 1.188s-1.433 4.398-2.313 6.441c-0.474 1.099-1.35 1.127-2.313 1.346-2.063 0.47-4.012 0.299-6.063 0-2.154-0.313-3.629-0.316-5.482 0.31-1.323 0.446-2.751 2.034-4.082 2.813-6.873 4.021-13.389 7.829-20.124 12.063-3.644 2.291-8.358 4.672-11.813 7.313-4.369 3.344-8.796 4.805-14.5 4.313-1.017-0.088-1.519-0.141-2.556 0-0.939 0.187-2.371 0.34-2.724 1.553-0.365 1.255 0.789 1.913 1.979 2.174 0 0-1.302 0.997-1.365 1.37-1.616 2.298-8.959 5.182-10.209 5.098-1.94-0.728-6.477-5.098-6.477-5.098s-4.006 1.348-4.867 1.354c-5.28 0.08-9.914-3.17-10.602-2.69z"/>
		<linearGradient id="SVGID_3_" x1="152.89" gradientUnits="userSpaceOnUse" y1="245.53" gradientTransform="matrix(1 0 0 -1 8.48 252.07)" x2="198.11" y2="106.08">
		<stop stop-color="#CDA397" offset="0"/>
		<stop stop-color="#B27E76" offset=".8"/>
	</linearGradient>
	<path fill="url(#SVGID_3_)" display="none" d="m278.85 51.506c-2.38 1.26-4.139 3.252-5.652 5.354-1.416 1.968-2.893 3.495-5.184 4.563-2.271 1.058-3.943 3.2-6.039 4.702-2.343 1.679-4.752 3.374-6.58 5.699-0.41 0.521-0.93 0.968-1.645 0.21-1.887-1.998-2.797-0.502-3.387 1.135-0.496 1.382-0.855 2.461-2.732 2-0.947-0.231-1.74 0.596-2.475 1.218-0.574 0.484-1.215 1.317-1.797 1.295-4.246-0.169-5.221 3.276-6.926 5.973-0.937 1.481-1.898 3.025-4.027 1.352-0.913-0.719-2.022-0.081-2.568 0.596-5.33 6.599-12.326 11.175-19.008 16.189-3.139 2.355-6.258 3.53-10.096 3.902-1.912 0.186-4.531 0.688-5.17 3.479-0.09 0.394-0.576 0.882-0.971 0.989-3.441 0.948-5.753 3.696-8.775 5.426-1.073-0.585 0.328-1.854-0.705-2.483-1.213 0.237-0.293 1.507-0.875 2.026-1.041 0.933-0.922-1.094-1.904-0.571-0.021 0.063-0.148 0.3-0.168 0.544-0.369 4.802-1.355 5.964-6.029 6.709-1.221 0.193-2.35 0.602-3.498 0.891-1.313 0.331-2.099 0.515-2.025 1.994 0.025 0.493-0.153 0.887-0.658 1.147-2.098 1.08-3.527 3.271-5.326 4.303-3.121 1.787-8.966 3.631-9.256 3.976-0.969 1.149-9.368 5.838-12.627 8.334-6.351 4.737-10.807 4.584-16.762 5.454-2.085 0.305-4.334 0.273-6.477 1.025-1.206 0.424-3.123-0.4-4.405-1.181-1.472-0.895-2.623-0.422-3.689 0.271-1.1 0.712-0.427 1.66-0.077 2.717 0.683 2.059-1.614 2.775-2.552 4.037-1.84 2.477-7.983 3.09-10.848 1.46 2.249-1.597 4.973-2.318 6.869-4.661 2.564-3.168 2.092-6.519-1.729-8.458-0.208-0.368-0.416-0.734-0.624-1.104 1.502-1.609 2.306 0.849 3.786 0.62 2.906-0.447 5.875-0.135 8.618 1.204 0.542 0.266 1.148 0.465 1.281-0.407 0.117-0.774-0.893-1.967 0.907-2.027 1.092-0.038 2.333 0.004 2.923 0.824 1.45 2.02 3.914 1.354 4.756 0.644 2.073-1.749 4.666-1.816 6.845-3.027 1.421-0.789 2.727-4.625 4.828-2.447 0.327 0.339 0.931-0.434 1.331-0.621 4.909-2.313 8.714-4.258 12.533-7.982 2.852-2.782 4.92-6.229 8.547-8.402 2.598-1.561 4.635-4.243 4.969-7.651 0.189-0.195 7.465-7.531 7.451-11.45 0.008-0.183 0.023-0.364 0.045-0.547 1.679-0.053 2.117-1.552 2.912-2.72-0.44 3.99-0.589 7.719-2.021 11.549-1.332 3.559 4.855 6.301 6.455 2.925 1.089-3.054 3.873-4.63 4.584-7.612 0.402-1.693 2.089-3.457-0.217-5.203-0.689-0.522 0.125-1.326 0.808-1.78 2.329-1.554 4.954-2.744 5.937-5.785 0.232-0.72 1.4-1.232 2.236-1.641 1.405-0.687 2.788-1.23 2.51-3.251-0.063-0.456 0.356-1.289 0.756-1.45 5.655-2.295 8.359-9.104 15.039-9.839 0.352-0.038 0.897-0.607 0.92-0.957 0.111-1.747 1.388-2.181 2.653-2.952 5.041-3.072 9.964-6.342 14.193-10.521 0.327-0.322 0.978-0.827 0.907-0.971-1.672-3.438 2.615-2.363 3.179-4.16 0.135-0.432 1.343-0.594 1.356 0.488 0.01 0.679-0.367 1.354 0.705 1.428 0.873 0.062 1.463-0.367 1.791-1.146 0.531-1.257 1.495-2.181 2.322-3.225 1.063-1.342 2.045-1.933 3.529-0.644 0.9 0.783 1.57 0.323 2.046-0.57 1.835-3.462 4.325-6.044 8.394-6.834 2.17-0.422 3.364-2.375 4.799-3.827 1.531-1.55 3.191-2.331 5.367-2.714 2.123-0.373 4.184-1.423 6.104-2.479 0.964-0.531 1.748-1.4 2.889-1.725 0.53-0.149 1.271-0.51 1.104-1.131-1.008-3.755 1.912-3.791 4.146-4.468 0.511-0.154 1.046-0.485 0.854-0.911-0.438-0.975-0.485-2.627-0.555-3.218-0.19-1.605 1.084-1.463 1.858-1.938 0.02 9.342 0.02 18.69 0.03 28.04z"/>
	<path d="m128.22 155.17c-1.191-0.261-2.345-0.919-1.979-2.174 0.353-1.213 1.785-1.366 2.724-1.553-0.12 0.96-0.24 2.8-0.74 3.72z" fill="#B28376"/>
	<path d="m130.06 86.876c-2.924-1.538-5.994-2.868-8.032-5.662 0.895-0.02 1.824 0.032 1.267-1.374-0.238-0.601-0.45-1.388 0.292-1.742 0.722-0.347 1.213 0.419 1.672 0.802 2.51 2.094 3.38 5.207 4.8 7.976z" fill="#B28376"/>
	<path d="m137.06 112.82c-1.215-1.341-0.591-2.671 0.497-3.426 2.032-1.41 3.982-3.246 6.803-2.868-1.57 3.11-4.06 5.14-7.3 6.3z" fill="#B28376"/>
	<path d="m125.4 116.76c0.758-1.086 1.133-0.382 1.699-0.571 0.407 0.034 0.814 0.068 1.221 0.104-0.78 1.39-1.61 2.42-2.92 0.47z" fill="#B28376"/>
<g stroke="#40220F" stroke-width=".5" stroke-miterlimit="10" fill="none">
	<path d="m94.142 155.19s-3.75 5.75-7.5 3.5-10.25-11-12.5-14.25-6-8.5-7.75-11.75-4-14.75-5.25-21-2-11.5-1.75-16.25 8-14.5 10.75-18 11-13.5 13.75-16.5 8.75-9.75 10.25-11.5 5.25-9.5 7-12.75 5.904-14.25 9.952-16.5c4.048-2.25 9.548-2.75 24.548-2.75s26.75-1.75 35.75-2 30.5-3.75 35.75-4.5 22.25-5.04 24.75-5.646c2.5-0.604 14.25-4.825 14.25-4.825"/>
	<path stroke-linejoin="round" stroke-linecap="round" d="m278.38 60.191s-11.24 7.25-16.24 10.75-15 9.75-18 12.75-12.5 15.158-17.5 19.329-17.25 10.921-24.25 12.671-10.75 2.5-14.5 4.75-7.5 6-13.75 9.25-12.75 8-16.25 10-13.5 8.75-17.25 10.25c-3.75 1.5-11.25 1.5-13.25 1.5s-9.75 0-9.75 0-2.721 1.25-6.548-1c-3.827-2.25-6.202-7.75-8.702-8.5s-6.25 0-7.75 2.5-1.75 7.25 2 9.75 5.792 3.539 5.792 3.539-11.542-1.039-12.042-9.039 1.5-13 9.25-18.75 14.5-10.25 18.5-11.25 8.5-3.25 8.5-3.25"/>
	<path d="m102.43 157.73s4.146 0.397 8.66-1.789c2.051-0.994 8.798-4.5 8.798-4.5"/>
	<path d="m182.03 124.63s7.357-0.06 10.107 0c2.75 0.061 3.75-1.689 3.75-1.689v-1s-3.5 1.44-5.25 1.346-5-1.346-5-1.346"/>
	<path d="m195.89 121.94s2.701-2.193 1.852-5.097"/>
	<path d="m123.64 119.39s0.75-2.451 3-3.951 3.25-1.25 4.5-1.5 3 0 3 0"/>
	<path d="m129.89 119.39s1.75-3.201 4.25-5.451 6.25-4 7.5-4.875 3.5-3.967 4.75-6.046 4-11.829 4-11.829"/>
	<path d="m144.9 105.29s-1.758-7.101-3.258-10.851-7.5-11-7.5-11"/>
	<path d="m143.23 99.166s-10.583-8.975-14.333-13.725-7.5-14.5-7.5-14.5"/>
	<path d="m128.89 85.441s-4.25-0.25-9-7.25-6.75-9-6.75-9"/>
	<path d="m123.64 83.441s-4 2.5-8.5 3.5-6.25 1.25-8.25 0-6-5.25-6-5.25"/>
	<path d="m104.93 85.441s0.46 1.75-1.04 4.5-3.5 5.949-8.25 9.225c-4.75 3.276-6 4.275-9 5.025s-10-1.171-10-1.171"/>
	<path d="m88.642 103.02s1.605 5.171 1.678 8.171 1.072 9.94-1.678 12.096-3 2.654-5 3.404-8.25 2.25-8.25 2.25"/>
	<path d="m89.682 121.94s1.709 2 2.709 4.5 2.347 7.865 2.347 7.865"/>
	<path d="m114.24 87.14s-2.345 5.226-4.595 7.764-2.537 2.987-4.644 4.263c-2.107 1.276-8.106 1.025-8.106 1.025"/>
	<path d="m105 99.166s1.356 2.935 0 3.854-4.356 1.269-6.356 1.345-5 0-5 0"/>
	<path d="m105 103.02s3.894 10.499 5.144 12.96 2.125 5.373 2.125 5.373"/>
	<path d="m113.14 91.191s-0.25 10.951 0 14.101 1.75 5.143 5.5 6.896 8 3.254 8 3.254"/>
	<path d="m124.64 101.78s7.5-1.392 9.5-2.616 5.379-3.23 5.379-3.23"/>
	<path d="m128.89 151.44s-0.75 5.795-5.25 7.771c-4.5 1.978-5.637 3.156-8.232 1.906s-5.38-4.748-5.38-4.748"/>
	<path stroke-linejoin="round" stroke-linecap="round" d="m187.11 120.93s4.119-2.854 5.619-4.089c1.5-1.236 5.166-6.736 6-8.903"/>
	<path stroke-linejoin="round" stroke-linecap="round" d="m195.89 117.32s4-2.383 6.168-5.049c2.166-2.666 3.332-6.166 3.332-6.166"/>
	<path stroke-linejoin="round" stroke-linecap="round" d="m201.67 115.87s3.225-1.881 5.725-4.155c2.5-2.273 3-3.773 3-3.773"/>
</g>
	<path d="m160.17 200.61c1.761 3.491 0.358 7.749-3.133 9.51l-110.98 55.96c-3.491 1.762-7.749 0.357-9.509-3.134l-33.104-65.64c-1.761-3.491-0.357-7.748 3.134-9.51l73.482-37.058s7.912 10.17 10.463 9.467 5.792-3.808 5.792-3.808 4.324 1.952 8.115 2.33c1.071 0.105 4.039-0.367 7.746-1.103 0 0 4.72 5.386 6.462 5.007 2.303-0.502 5.742-1.896 8-2.422 2.479-0.574 3.423-6.8 4.063-8.662l4.804-0.221 24.67 49.27z" fill="#183849"/>
	<path opacity=".9208" enable-background="new    " d="m158.17 199.61l-24.246-48.161-14.031 0.274s-8.313 4.313-9.969 5-5.772 1.388-6.844 1.28c-3.792-0.378-5.144-0.737-7.063-1.75-7.757-4.091-5.944-10.255-6-7.388-0.084 4.335 0-5.748 0-5.748l-16.782 9.061-7.833 3.949-60.821 30.68c-3.491 1.762-4.895 6.019-3.134 9.51l33.104 65.642c2.179 3.895 5.196 5.436 9.509 3.134l110.98-55.965c3.49-1.76 4.89-6.02 3.13-9.51z" fill="#fff"/>
		<linearGradient id="SVGID_4_" x1="31.341" gradientUnits="userSpaceOnUse" y1="-9.6824" gradientTransform="matrix(1 0 0 -1 8.48 252.07)" x2="110.2" y2="116.12">
		<stop stop-color="#00367F" offset="0"/>
		<stop stop-color="#0052A9" offset=".2211"/>
		<stop stop-color="#0091E9" offset=".4"/>
		<stop stop-color="#004EA3" offset=".7105"/>
		<stop stop-color="#00367F" offset="1"/>
	</linearGradient>
	<path opacity=".9208" enable-background="new    " d="m158.17 199.61l-24.246-48.161-14.031 0.274s-8.313 4.313-9.969 5-5.772 1.388-6.844 1.28c-3.544-0.481-4.89-0.87-7.063-1.75-5.473-2.948-5.817-6.451-5.848-7.81s0.031-4.844 0.031-4.844l-16.965 8.578-7.833 3.949-60.821 30.67c-3.491 1.762-4.895 6.019-3.134 9.51l33.104 65.642c2.012 4.132 5.504 5.436 9.509 3.134l110.98-55.965c3.49-1.76 4.89-6.02 3.13-9.51z" fill="url(#SVGID_4_)"/>
	<g opacity=".2" enable-background="new    ">
			<defs>
				<path id="SVGID_5_" d="m158.17 199.61l-24.246-48.161-14.031 0.274s-8.313 4.313-9.969 5-5.772 1.388-6.844 1.28c-3.792-0.378-5.144-0.737-7.063-1.75-7.757-4.091-5.944-10.255-6-7.388-0.084 4.335 0-5.748 0-5.748l-16.782 9.061-7.833 3.949-60.821 30.68c-3.491 1.762-4.895 6.019-3.134 9.51l33.104 65.642c1.76 3.491 6.019 4.896 9.509 3.134l110.98-55.965c3.49-1.76 4.89-6.02 3.13-9.51z"/>
			</defs>
			<clipPath id="SVGID_6_">
				<use overflow="visible" xlink:href="#SVGID_5_"/>
			</clipPath>
			<g clip-path="url(#SVGID_6_)" fill="#6A3906">
				<path d="m100.03 197.9l-0.847-0.134c-0.249-0.241-0.749-0.726-1.45-0.563-0.699 0.164-1.095-0.372-1.292-0.641-0.073-0.146-0.218-0.442-0.99-0.425-0.774 0.017-0.654-1.323-1.198-1.237-0.544 0.085-2.731-1.575-2.792-2.094-0.061-0.521-0.374-0.364-0.447-0.513-0.073-0.146-0.08 0.102-0.084 0.228l-1.014 0.315-2.415 0.646-1.278 1.362-4.105 0.382-1.438-0.937c-0.292 0.176-0.58 0.331-0.87 0.491-0.282 0.159-0.566 0.322-0.856 0.509-0.004 0.004-0.006 0.005-0.01 0.008-0.613 0.397-1.255 0.911-1.981 1.743l-1.472 0.181c-0.66 1.305-0.647 2.446-0.576 3.575-0.772 1.517-1.099 3.168-1.311 4.854l1.041 1.312 0.277 0.96c0.614 1.086 1.576 1.409 2.576 1.655l3.066 0.678 2.427-1.016c0.284-0.561 0.814-1.601 2.082-1.618 0.071-0.001 0.147 0.003 0.223 0.01 0.033 0.002 0.064 0.002 0.097 0.008 0.111 0.013 0.228 0.029 0.349 0.059 1.764 0.408 0.893-1.354 1.861-0.188 0.966 1.169 0.653 1.321 0.496 1.4 0.375 0.363 1.124 1.091 2.272 1.438 1.146 0.347 1.522 0.709 1.499 1.454-0.024 0.74-0.35 1.269 0.013 2.003s0.667 0.952 1.342 1.531c0.677 0.579 0.52 0.655 1.342 1.531 0.824 0.874 1.656 1.375 2.333 1.953 0.677 0.582 0.424 1.256 1.198 1.238 0.772-0.017 1.941-0.411 2.499-0.869 0.553-0.455 1.772-2.338 1.819-3.822 0.047-1.488-0.258-1.581-0.413-1.625 0.27-0.376 0.809-1.13-0.159-2.3-0.967-1.168 0.602-1.94 0.917-2.097 0.313-0.155 0.444-1.866-0.388-2.367-0.835-0.504-2.444-3.365-0.923-5.029 0.062-0.07 0.12-0.143 0.176-0.216l-0.002-0.004c1.284-1.723 0.677-4.788 0.689-5.146 0-0.35-1.53 0.77-2.3 1.33z"/>
				<path d="m71.378 219.45l-0.006-0.012c-0.031-0.005-0.069-0.005-0.103-0.008-0.027-0.003-0.052-0.007-0.079-0.007-0.103-0.002-0.21 0.003-0.335 0.022-2.173 0.342-0.208-0.813-2.088 0.115-1.882 0.931-1.026 0.689-1.329 0.475-0.302-0.217-1.146-0.348-1.46-0.192-0.314 0.154-1.086 0.172-1.473 0.18l0.096-0.597c-0.661-0.281-1.981-0.85-3.55-0.073-1.57 0.774-1.075-0.199-1.305-0.271-0.23-0.07-0.846-0.13-1.076-0.197-0.23-0.072-1.001-0.057-1.389-0.048-0.136 0.249-0.409 0.75-0.639 0.683-0.229-0.07-0.628 0.31-0.856 0.24-0.23-0.069-0.859 0.24-1.015 0.317s-0.543 0.086-0.7 0.161c-0.157 0.079-0.858 0.242-0.94 0.467-0.014 0.034-0.036 0.075-0.062 0.118-0.022 0.037-0.046 0.079-0.074 0.124-0.008 0.012-0.015 0.023-0.024 0.039-0.031 0.053-0.062 0.107-0.089 0.168l-0.001 0.002c-0.024 0.053-0.042 0.11-0.057 0.169-0.002 0.006-0.006 0.012-0.007 0.021l0.002 0.003c-0.027 0.126-0.023 0.26 0.046 0.4 0.217 0.44-0.013 0.37-0.097 0.595-0.082 0.225-0.167 0.45-0.094 0.599 0.072 0.146 0.375 0.361 0.448 0.508 0.072 0.147 0.145 0.294 0.218 0.442 0.073 0.146 0.29 0.587 0.132 0.665-0.156 0.077-0.262 0.129-0.314 0.154l-0.012 0.371-0.012 0.37-0.157 0.079c-0.079 0.099-0.24 0.301 0.062 0.518s0.219 0.441 0.062 0.519 0.303 0.218 0.531 0.287c-0.083 0.225-0.252 0.673-0.034 1.114s1.281 1.015 1.51 1.083c0.229 0.067 0.688 0.207 1.064 0.569 0.201 0.197 0.626 0.493 1.093 0.726l0.003 0.004c0.044 0.021 0.089 0.04 0.134 0.063 0.042 0.018 0.081 0.036 0.122 0.055 0.065 0.027 0.129 0.049 0.194 0.072 0.043 0.016 0.087 0.033 0.13 0.046 0.067 0.021 0.132 0.036 0.199 0.051 0.038 0.008 0.076 0.021 0.114 0.026 0.102 0.018 0.199 0.026 0.293 0.025 0.774-0.017 2.078 0.255 2.429 1.358 0.352 1.108 0.731 2.14 0.921 2.655-0.029 0.076-0.084 0.224 0.121 1.036 0.208 0.813 0.667 0.951 0.642 1.695-0.024 0.741 0.316 2.219 0.606 2.808 0.291 0.587 0.124 1.035 0.425 1.254 0.301 0.216 0.882 1.394 1.016 2.059 0.135 0.663 1.006 2.429 1.452 2.938 0.448 0.511 0.499 1.399 1.73 1.524 1.231 0.122 2.132-0.69 2.583-1.094-0.605-0.435-1.569 0.773-1.813-1.301-0.245-2.072-0.593-0.804-0.329-1.847 0.264-1.048-0.218-0.442-0.666-0.952-0.447-0.512-0.52-0.658-0.122-1.038 0.399-0.38 0.108-0.968 0.193-1.19 0.084-0.227-0.512-0.905-0.811-1.246 0.439-0.034 1.316-0.101 0.808-1.13-0.508-1.027 0.845 0.131 1.351-1.216 0.508-1.349-0.025-1.636-0.254-1.702-0.231-0.069-0.279-0.166-0.303-0.217l1.255-0.621 0.254-0.675c0.257-0.796 0.769-2.391 0.636-3.057-0.134-0.664-0.521-0.655-0.267-1.33 0.254-0.674 0.351-1.271 0.904-1.726 0.555-0.458 0.856-0.241 1.038-1.063 0.18-0.819 0.154-2.452-0.221-2.816-0.375-0.362-0.508-1.028-0.424-1.252 0.021-0.054 0.109-0.273 0.206-0.572 0.003-0.011 0.006-0.021 0.01-0.029 0.016-0.055 0.032-0.111 0.05-0.168 0.008-0.03 0.018-0.061 0.026-0.093 0.014-0.046 0.026-0.099 0.039-0.147 0.011-0.045 0.022-0.087 0.034-0.133 0.01-0.042 0.019-0.089 0.028-0.135 0.011-0.053 0.023-0.104 0.032-0.157 0.008-0.043 0.012-0.085 0.019-0.127 0.006-0.044 0.015-0.09 0.02-0.134l-0.001-0.004c0.073-0.65-0.047-1.27-0.693-1.39z"/>
				<path d="m51.213 222.75c-0.314 0.155-0.93 0.097-1.39-0.045-0.458-0.14-0.218-0.44-0.509-1.027-0.291-0.589 0.025-0.743-0.749-0.729-0.773 0.019-0.785 0.389-1.099 0.543-0.313 0.154-0.542 0.086-0.688-0.207-0.146-0.295-0.291-0.589-0.109-1.409 0.179-0.818-0.291-0.588-1.161 0.023-0.869 0.613-0.168 0.45-0.348 1.271-0.18 0.819-0.325 0.525-0.953 0.836-0.628 0.312-1.377-0.417-2.211-0.918-0.834-0.504-0.364-0.735-0.63-2.063-0.267-1.333-0.049-0.893 0.506-1.35s1.787-0.335 1.339-0.844c-0.447-0.512 0.012-0.372 0.724-0.906 0.711-0.534 0.556-0.457 1.255-0.621 0.701-0.162 1.103 0.127 1.304 0.271 0.58 0.382 1.742 1.149 1.596 0.855-0.145-0.293-0.507-1.027-0.81-1.244-0.302-0.218 0.058-1.857 0.154-2.453 0.083-0.515 0.503-0.926 0.34-1.595l0.005 0.011c-0.001-0.005-0.005-0.014-0.007-0.019-0.026-0.104-0.065-0.215-0.124-0.333-0.436-0.881-0.351-1.106-0.244-2.072 0.107-0.969 1.413-0.697 0.893-1.356-0.52-0.657 0.023-0.742 0.204-1.563 0.179-0.819 0.397-0.377 1.352-1.215 0.953-0.838 0.179-0.821-0.424-1.255-0.605-0.434-1.775-0.035-1.367-0.789 0.411-0.751 1.352-1.215 2.063-1.75 0.711-0.534 1.329-0.473 1.279-1.36-0.049-0.894-0.508-1.029-1.488-1.825-0.978-0.797-1.545 0.03-2.295-0.694-0.749-0.728-2.04-1.369-2.125-1.146-0.084 0.226 0.582 1.178-1.279 1.364-1.86 0.187-0.592-0.806-2.198-1.289-0.151-0.048-0.282-0.092-0.402-0.129-0.034-0.012-0.072-0.022-0.104-0.032-0.023-0.01-0.044-0.016-0.065-0.022-0.056-0.019-0.111-0.036-0.161-0.054-0.016-0.005-0.031-0.008-0.044-0.014-0.076-0.023-0.145-0.045-0.207-0.063-0.012-0.003-0.025-0.006-0.036-0.009-0.065-0.019-0.122-0.028-0.174-0.034-0.011 0-0.021-0.001-0.031-0.003-0.104-0.008-0.188 0.009-0.271 0.058-0.007 0.005-0.014 0.009-0.021 0.012-0.042 0.029-0.083 0.063-0.128 0.105 0 0.001-0.002 0.004-0.004 0.005-0.146 0.146-0.319 0.383-0.608 0.745-0.964 1.207 0.206 0.813-0.036 1.114s0.183 1.557 1.571 1.601c0.299 0.012 0.499 0.069 0.634 0.151 0.036 0.022 0.068 0.046 0.095 0.072 0.011 0.012 0.021 0.021 0.032 0.031 0.027 0.033 0.051 0.065 0.066 0.104 0.002 0.003 0.005 0.007 0.007 0.012 0.016 0.04 0.025 0.081 0.031 0.125 0.001 0.014 0.002 0.025 0.001 0.038 0.002 0.029 0.001 0.063-0.002 0.092-0.028 0.264-0.209 0.516-0.284 0.552-0.155 0.077-0.12 1.337 0.244 2.072s-0.287 1.789-0.904 1.728c-0.615-0.062-0.81-1.245-1.04-1.314-0.229-0.067-1.147-0.347-1.993-0.478-0.844-0.132-1.085 0.171-1.858 0.187-0.774 0.019-1.69-0.263-1.909-0.702-0.219-0.441-0.957-1.54-0.787-1.986 0.168-0.45 0.203-1.563 0.529-2.093 0.324-0.523 0.663-1.422 0.602-1.942-0.062-0.516 0.421-1.12 0.748-1.647 0.323-0.525 0.191-1.189 0.057-1.856-0.133-0.664-1.028-1.688-2.417-1.731-1.388-0.045 0.145 0.294 0.727 1.47 0.581 1.177 0.17 1.929-0.433 1.493-0.605-0.432-0.762-0.354-1.294-0.641-0.53-0.285-1.679-0.633-1.751-0.78-0.072-0.146 0 0-0.29-0.587-0.291-0.588-0.291-0.588-1.583-1.229-1.292-0.643-0.327 0.526-0.275 1.417 0.048 0.891 0.52 0.657 1.134 0.718 0.616 0.063 0.834 0.503 0.883 1.394 0.05 0.889-0.036 1.115-0.663 1.424-0.629 0.311-1.267 0.991-2.414 0.646-1.148-0.349-1.17 0.396-1.727 0.852-0.554 0.457 0.654 1.324-0.035 1.114-0.689-0.209-1.545 0.033-1.63 0.256-0.084 0.227-0.942 0.465-1.473 0.182-0.146-0.079-0.31-0.12-0.485-0.145l-0.002-0.007c-0.134-0.018-0.279-0.023-0.432-0.023-0.076-0.003-0.164-0.001-0.244 0-0.124 0.004-0.254 0.006-0.391 0.009-0.21 0.003-0.437 0.002-0.681-0.011-1.002-0.055-1.316 0.103-2.101 0.488-0.785 0.388-1.159 0.023-1.316 0.103-0.157 0.075-1.834 1.821-2.401 2.647-0.566 0.828-0.326 0.527-1.412 0.697-1.086 0.173-2.706 0.057-3.864 0.08-1.159 0.024-2.882 0.756-3.743 1.117l5.313 10.356c0.076-0.768 0.227-2.304 1.253-2.995 1.026-0.688 2.161 0.03 3.175-0.287s2.149 0.4 3.623 0.221c1.473-0.179 1.294 0.644 3.201 1.345 1.91 0.702 5.33 4.864 5.465 5.529 0.134 0.664 2.769 2.837 4.23 3.029 0.211 0.027 0.427 0.043 0.643 0.058 0.071 0.002 0.14 0.006 0.21 0.008 0.154 0.005 0.304 0.012 0.453 0.012 0.025 0.001 0.051 0.002 0.076 0.001 0.991 0.005 1.876-0.053 2.242 0.145 0.53 0.285 3.189 1.716 3.564 2.079 0.375 0.361 0.678 0.58 0.907 0.647 0.229 0.069 1.533 0.339 3.007 0.16 1.472-0.18 1.171-0.396 2.04-1.008 0.868-0.613 1.311 0.021 1.533 0.339 0.337-0.107 1.014-0.316 1.558-0.403 0.542-0.085 0.987 0.552 1.207 0.865l1.461 0.192c0.372-0.32 1.111-0.93 0.798-0.78z"/>
				<path d="m130.56 143.14c-0.073-0.147-1.104-0.123-1.618-0.113-0.146-0.294-0.437-0.882-1.848-0.186-1.413 0.697-1.822 1.448-2.269 0.938-0.448-0.511-0.375-0.364-0.834-0.503-0.459-0.14-2.088 0.118-2.475 0.127-0.388 0.009-1.764-0.409-1.558 0.402 0.207 0.813 0.176 1.803 0.16 2.3-0.697 0.037-2.09 0.117-2.246 0.192-0.157 0.078-0.438 0.826-0.579 1.201l-1.461-0.191-0.194-1.186c-0.761-0.126-2.135-0.354-2.685-0.39v-0.001c-0.013-0.001-0.021 0-0.033-0.001-0.032-0.001-0.064-0.004-0.089-0.003-0.055 0-0.098 0.002-0.115 0.011-0.017 0.008-0.013 0.018 0.001 0.027 0.001 0.003 0.002 0.005 0.005 0.007 0.015 0.011 0.037 0.021 0.063 0.033 0.041 0.019 0.088 0.04 0.14 0.066 0.002 0 0.004 0.001 0.007 0.002 0.043 0.022 0.087 0.048 0.125 0.077 0.084 0.063 0.141 0.145 0.119 0.248-0.006 0.034-0.021 0.068-0.049 0.109-0.003 0.004-0.01 0.01-0.015 0.016-0.024 0.033-0.058 0.068-0.098 0.105-0.017 0.014-0.034 0.028-0.053 0.043-0.041 0.031-0.088 0.063-0.143 0.101-0.023 0.017-0.046 0.03-0.072 0.045-0.084 0.054-0.18 0.106-0.297 0.163-1.568 0.775-2.499 0.869-2.813 1.026-0.313 0.151-1.737 1.224-1.894 1.3-0.157 0.078-1.05 0.641-1.497 0.924 0.222-0.476 0.663-1.428 0.747-1.651 0.086-0.222 0.215-1.934 0.372-2.011 0.158-0.079-0.036-1.263-0.642-1.694-0.604-0.433-1.751-0.78-2.148-0.401-0.398 0.38-0.914 0.392-1.173 0.396-0.225-0.192-0.675-0.579-0.748-0.727-0.072-0.147-0.979-0.797-0.93 0.093 0.05 0.893-0.299 2.16-0.322 2.903-0.024 0.743-2.909 1.62-3.185 3.035-0.277 1.417-1.012 2.693-0.794 3.135 0.014 0.027 0.018 0.055 0.017 0.083 0 0.018-0.008 0.035-0.014 0.053-0.002 0.009-0.003 0.02-0.008 0.028-0.011 0.021-0.028 0.042-0.046 0.063-0.003 0.004-0.007 0.012-0.011 0.017-0.019 0.021-0.043 0.042-0.068 0.063-0.006 0.005-0.012 0.009-0.018 0.018-0.385 0.314-1.271 0.654-0.829 1.257 0.592 0.806 1.5 1.453 1.415 1.678-0.085 0.224-0.99-0.425-1.546 0.033-0.555 0.454-1.581 1.146-0.917 2.098 0.666 0.95-0.13 1.709-0.528 2.09-0.495-0.607-1.487-1.826-1.402-2.05 0.084-0.227 0.865-2.985-0.487-1.771-1.35 1.217-2.375 1.905-1.179 3.145 1.197 1.235 1.633 2.119 2.008 2.48 0.375 0.362-1.859 0.188-2.09 0.118-0.23-0.068-2.296-0.692-1.861 0.188 0.437 0.883 0.727 1.471 0.415 1.624-0.314 0.156-2.198 1.087-2.354 1.163-0.157 0.078-0.063-0.52-0.797 0.76-0.735 1.277-0.832 1.874-0.842 2.244-0.012 0.372-0.656-0.406-0.979-0.795-0.05 0.178-0.117 0.435-0.152 0.697l-0.002-0.004c-0.003 0.02-0.003 0.038-0.006 0.06-0.005 0.047-0.009 0.094-0.012 0.144-0.001 0.036-0.002 0.074-0.003 0.112 0 0.047 0.004 0.09 0.007 0.134 0.003 0.035 0.006 0.071 0.013 0.104 0.008 0.048 0.022 0.09 0.037 0.132 0.008 0.027 0.015 0.056 0.027 0.08 0.031 0.064 0.068 0.125 0.119 0.173 0.375 0.364-0.197 0.525-0.483 0.605-0.52 0.134-1.558 0.403-0.954 0.836 0.604 0.434 0.834 0.503 0.98 0.797 0.145 0.293-0.781 0.263-1.245 0.25 0.145 0.294 0.436 0.88 0.279 0.958-0.158 0.077-1.229-0.247-1.764-0.407l-1.343-1.533 2.402-0.271 0.797-0.761c0.012-0.369 0.035-1.114-0.581-1.176-0.616-0.061-2.005-0.105-2.234-0.176s-0.29-0.587-1.304-0.271c-1.013 0.318-2.029 0.638-2.174 0.344-0.145-0.293-2.003-0.107-2.33 0.421-0.326 0.525-1.52 1.664-1.47 2.555 0.048 0.89-0.53 2.088-0.48 2.98 0.048 0.889-0.59 1.569-0.154 2.451 0.436 0.883 0.027 1.634-0.143 2.082-0.17 0.449-1.34 0.845-0.832 1.873 0.509 1.028 0.497 1.398 0.872 1.764 0.374 0.364 1.46 0.192 1.702-0.107 0.243-0.304 1.314-2.478 1.895-1.301 0.582 1.174 0.399 1.994 0.872 1.762 0.472-0.232 0.275-1.416 0.299-2.16 0.023-0.741 0.411-0.751 0.193-1.191s-0.918-0.276-1.209-0.865c-0.29-0.587-0.738-1.097-0.653-1.322 0.084-0.224 0.421-1.122 0.818-1.502 0.4-0.379 0.025-0.743 0.048-1.484 0.023-0.742-0.206-0.813 0.651-1.055 0.856-0.237 0.772-0.016 0.979 0.798 0.205 0.811-0.193 1.191-0.374 2.014-0.179 0.818-0.13 1.709 0.559 1.916 0.688 0.21 1.401-0.323 1.641-0.627 0.241-0.304 0.411-0.751 0.796-0.76 0.386-0.009 1.222 0.495 0.979 0.796-0.24 0.303-1.423 1.068-1.894 1.303-0.471 0.231 0.52 0.658 0.738 1.1 0.218 0.439 0.161 0.59 0.133 0.664-0.39 0.131-1.17 0.396-1.025 0.689 0.145 0.295-0.049 1.486-0.132 1.71-0.083 0.225-0.785 0.387-1.184 0.768-0.396 0.38-2.111 0.86-2.269 0.938-0.157 0.078-1.122 1.285-1.05 1.433 0.073 0.148-0.796 0.758-0.578 1.2 0.025 0.049 0.034 0.104 0.037 0.167 0.001 0.014 0.001 0.028 0.001 0.042-0.009 0.471-0.534 1.159-0.471 1.284 0.072 0.146-0.398 0.381-0.493 0.976-0.097 0.596 0.109 1.408 0.254 1.703 0.145 0.293 0.477 1.227 0.642 1.693-0.39 0.132-1.171 0.396-1.485 0.552-0.313 0.154-2.402 0.271-1.653 0.998 0.75 0.728 2.466 2.622 2.623 2.544 0.158-0.077 1.425-1.068 1.895-1.302 0.471-0.233 0.579-1.199 0.674-1.796 0.084-0.52-0.232-1.255 0.312-1.986 0.081-0.111 0.179-0.219 0.302-0.328 0.954-0.835 1.123-1.284 1.81-1.077 0.689 0.21 3.007 0.162 3.079 0.31 0.073 0.146 0.593 0.804 0.353 1.104-0.241 0.301-1.245 0.249-0.87 0.612s0.521 0.658 0.834 0.502c0.314-0.155 0.036-1.114 0.434-1.494s1.037-1.062 0.192-1.192c-0.846-0.131-1.848-0.184-2.307-0.32-0.46-0.14-1.114-1.462-0.957-1.541 0.157-0.077 0.835 0.503 1.521 0.711 0.69 0.209 1.162-0.024 1.691 0.262 0.533 0.287-0.384 0.009 0.751 0.729 1.137 0.717 1.908 0.7 2.065 0.624 0.157-0.079-0.896-1.021-0.882-1.394 0.011-0.372 0.662-1.423 1.182-0.766 0.52 0.655 0.194 1.183 1.041 1.313 0.844 0.13 0.291 0.588 1.703-0.111 1.411-0.696 1.652-0.998 1.882-0.93 0.231 0.069-0.144-0.293 0.375 0.363 0.52 0.657 0.738 1.1 0.727 1.47-0.013 0.372-0.713 0.534-0.64 0.683 0.071 0.146 0.515 0.779 0.736 1.099 0.483 0.189 0.846 0.131 1.451 0.563 0.604 0.435 0.531 0.286 1.437 0.937 0.907 0.646 0.75 0.726 1.282 1.012 0.53 0.286 0.99 0.424 1.292 0.643 0.302 0.216 0.956 0.747 1.281 1.014 0.02-0.011 0.044-0.021 0.07-0.035v-0.001c0.171-0.087 0.466-0.25 0.955-0.653 0.555-0.458 0.651-1.054 1.121-1.287 0.473-0.232 0.496-0.976 0.653-1.053 0.155-0.076 0.324-0.524 0.724-0.905 0.396-0.38 0.65-1.054 0.578-1.201-0.072-0.146 0.108-0.966-0.037-1.26-0.146-0.295-1.053-0.942-1.367-0.787-0.314 0.153-0.88 0.982-0.965 1.207-0.084 0.225-0.654 0.386-0.941 0.465-0.402-0.287-1.206-0.864-1.437-0.936-0.168-0.051 0.013-0.731 0.036-1.217-0.066-0.151-0.065-0.308-0.063-0.416 0.06 0.085 0.07 0.238 0.063 0.416 0.085 0.193 0.284 0.385 0.76 0.457 0.845 0.134 1.159-0.021 1.473-0.178 0.315-0.154 0.784-0.388 1.244-0.249 0.459 0.139 0.929-0.094 1.4-0.327 0.469-0.232 0.867-0.61 1.412-0.696 0.543-0.087 1.026-0.689 1.401-0.326 0.374 0.361 1.449 0.563 1.678 0.634 0.23 0.067 0.482-0.604 0.785-0.389 0.302 0.218 0.531 0.284 0.823 0.874 0.289 0.587 0.894 1.021 1.269 1.383 0.375 0.366 1.292 0.643 1.509 1.083 0.218 0.441 0.352 1.105 0.98 0.797 0.627-0.311 0.494-0.976 0.506-1.347 0.012-0.373-0.376-1.158-0.569-1.55 0.037-0.321 0.107-0.966 0.434-1.492 0.224-0.365 0.119-0.651 0.189-0.994 0.011-0.054 0.028-0.108 0.05-0.165 0.009-0.024 0.02-0.053 0.033-0.081 0.04-0.08 0.087-0.163 0.159-0.253 0.484-0.604-0.206-0.812 0.893-1.354 1.098-0.542 0.348-1.271 1.34-0.845 0.99 0.426 1.679 0.632 1.896 1.073 0.218 0.44-0.036 1.115 0.436 0.882 0.471-0.231-0.062-0.519 0.566-0.828 0.629-0.311 0.629-0.311 0.919 0.275 0.291 0.59-0.024 0.745 0.581 1.179 0.604 0.432 0.302 0.216 0.555-0.457 0.252-0.674 0.482-0.604 0.94-0.465 0.459 0.139 0.544-0.086 1.148 0.347s0.666 0.951 1.087-0.17c0.42-1.124 0.868-0.611 0.432-1.494s-0.268-1.333-1.124-1.091c-0.858 0.24-1.002-0.055-1.378-0.417-0.374-0.363-0.966-1.168-0.024-1.634 0.94-0.465 2.111-0.859 2.751-1.542 0.639-0.682 1.05-1.435 1.06-1.804 0.012-0.372 0.366-1.766 0.542-2.462l-1.184-1.609-1.222-0.493c-0.132 0.127-0.397 0.379 0.169-0.448 0.567-0.829 1.207-1.512 0.421-1.123-0.784 0.388-1.182 0.768-1.255 0.621-0.071-0.146-1.001-0.056-1.074-0.2-0.073-0.147 1.435-1.441 1.52-1.665 0.009-0.026 0.034-0.05 0.064-0.079 0.009-0.007 0.02-0.015 0.03-0.021 0.028-0.022 0.06-0.041 0.097-0.063 0.012-0.007 0.022-0.012 0.035-0.019 0.05-0.026 0.105-0.052 0.166-0.074 0.012-0.005 0.026-0.007 0.039-0.012 0.05-0.02 0.102-0.036 0.156-0.052 0.021-0.004 0.042-0.011 0.063-0.016 0.053-0.015 0.105-0.025 0.157-0.035 0.017-0.003 0.033-0.005 0.05-0.01 0.223-0.034 0.433-0.029 0.544 0.051 0.302 0.218 0.689 0.211 1.137 0.72 0.448 0.512 0.133 0.667 0.508 1.028 0.375 0.364 0.699-0.162 0.784-0.387s0.412-0.75 0.109-0.968c-0.303-0.218-0.908-0.648-1.21-0.867-0.097-0.194-0.291-0.586-0.206-0.811 0.085-0.226 0.411-0.752 0.494-0.978 0.084-0.221-0.676-0.579 0.495-0.976 1.171-0.396 1.184-0.767 1.436-1.438 0.252-0.675 0.131-1.711 0.3-2.161 0.167-0.449-0.049-0.888-0.341-1.478-0.291-0.59-0.413-1.626-0.642-1.694-0.229-0.067-1.147-0.347-1.461-0.191-0.313 0.153-1.08-0.077-1.461-0.192 0.165-0.324 0.495-0.977 0.579-1.201 0.084-0.222-0.978-0.796-0.013-2.002 0.964-1.208 0.432-1.495 1.918-2.045 1.483-0.551 1.328-0.475 2.269-0.938 0.941-0.466 1.11-0.913 1.362-1.588 0.253-0.674 0.238-2.677 1.303-2.104 1.063 0.57 1.086-0.171 1.098-0.543-1.15-2.1-3.38-6.36-3.46-6.51z"/>
			</g>
	</g>
	<g stroke="#fff" stroke-width="2" fill="#241E51">
		<path d="m18.564 195.02c0.138 0.845 0.031 1.592-0.322 2.241-0.352 0.647-0.943 1.183-1.773 1.602-0.508 0.258-1.025 0.409-1.549 0.455s-1.04-0.015-1.549-0.182c-0.588-0.193-1.103-0.49-1.544-0.892-0.441-0.4-0.82-0.915-1.138-1.542-0.613-1.214-0.758-2.369-0.434-3.468s1.061-1.938 2.207-2.518c0.426-0.216 0.906-0.39 1.443-0.521 0.538-0.131 1.142-0.224 1.811-0.277l0.909 1.8-0.591 0.299c-0.46-0.591-0.963-0.942-1.509-1.058-0.546-0.112-1.169 0.008-1.869 0.361-0.833 0.421-1.315 1.035-1.445 1.844s0.095 1.784 0.675 2.933c0.578 1.144 1.23 1.901 1.959 2.275 0.728 0.374 1.508 0.351 2.341-0.07 0.582-0.295 0.991-0.676 1.228-1.144s0.299-1.019 0.188-1.654l0.962-0.48z"/>
		<path d="m23.422 190.3c0.278-0.059 0.545-0.052 0.801 0.02 0.257 0.068 0.526 0.212 0.811 0.427l2.306 1.743 0.952-0.481 0.279 0.556-1.84 0.93-2.475-1.867c-0.477-0.363-0.848-0.564-1.115-0.607-0.266-0.042-0.57 0.021-0.912 0.194l-1.166 0.59 1.555 3.075 1.104-0.559 0.28 0.555-3.159 1.597-0.279-0.555 0.993-0.502-3.384-6.693-0.994 0.502-0.283-0.559 3.959-2.001c0.76-0.385 1.438-0.5 2.035-0.347 0.596 0.152 1.063 0.563 1.399 1.229 0.271 0.537 0.334 1.036 0.188 1.496s-0.498 0.87-1.055 1.25zm-2.643 0.94l1.543-0.78c0.526-0.266 0.852-0.587 0.977-0.963s0.056-0.826-0.209-1.349c-0.264-0.523-0.584-0.846-0.961-0.965-0.376-0.121-0.827-0.05-1.354 0.218l-1.542 0.78 1.546 3.06z"/>
		<path d="m28.906 192.39l-0.281-0.555 0.994-0.503-3.385-6.692-0.993 0.503-0.282-0.561 6.285-3.178 0.877 1.736-0.643 0.323-0.553-1.092-3.588 1.813 1.322 2.613 2.558-1.293-0.495-0.978 0.644-0.325 1.312 2.594-0.644 0.324-0.494-0.977-2.558 1.292 1.652 3.269 3.672-1.855-0.553-1.094 0.643-0.324 0.878 1.735-6.368 3.23z"/>
		<path d="m36.723 188.44l-0.279-0.555 0.992-0.503-3.384-6.692-0.993 0.503-0.283-0.561 3.106-1.569c1.346-0.682 2.567-0.867 3.666-0.562 1.099 0.309 1.958 1.072 2.576 2.296 0.62 1.228 0.728 2.376 0.324 3.447-0.404 1.07-1.276 1.945-2.619 2.624l-3.106 1.57zm1.775-1.6l0.973-0.491c1.014-0.514 1.646-1.196 1.896-2.049 0.25-0.854 0.101-1.819-0.445-2.899-0.546-1.081-1.234-1.771-2.063-2.069s-1.753-0.189-2.771 0.324l-0.973 0.492 3.383 6.7z"/>
		<path d="m47.084 182.5l0.994-0.502 0.279 0.555-3.048 1.542-0.28-0.556 0.994-0.502-3.385-6.692-0.993 0.502-0.283-0.56 3.048-1.542 0.283 0.561-0.993 0.502 3.384 6.69z"/>
		<path d="m50.994 181.22l-0.281-0.555 0.999-0.505-3.353-6.631-2.295 1.161 0.615 1.218-0.643 0.326-0.931-1.841 6.934-3.506 0.931 1.841-0.644 0.325-0.616-1.22-2.295 1.161 3.352 6.63 1-0.505 0.279 0.555-3.052 1.54z"/>
		<path d="m66.002 171.04c0.139 0.846 0.031 1.592-0.321 2.241-0.353 0.648-0.944 1.183-1.773 1.603-0.509 0.258-1.025 0.408-1.55 0.455-0.523 0.045-1.04-0.015-1.549-0.182-0.588-0.193-1.103-0.49-1.543-0.891-0.441-0.401-0.82-0.915-1.139-1.543-0.613-1.214-0.758-2.369-0.434-3.468s1.061-1.938 2.207-2.519c0.426-0.215 0.907-0.388 1.445-0.521 0.537-0.132 1.14-0.225 1.809-0.277l0.91 1.799-0.592 0.299c-0.46-0.59-0.963-0.94-1.508-1.056-0.546-0.114-1.169 0.007-1.87 0.359-0.833 0.423-1.314 1.036-1.444 1.845-0.131 0.808 0.095 1.784 0.674 2.932 0.578 1.144 1.231 1.902 1.959 2.276s1.508 0.351 2.341-0.07c0.582-0.294 0.991-0.676 1.228-1.143 0.236-0.469 0.3-1.021 0.188-1.655l0.962-0.48z"/>
		<path d="m67.627 172.81l-0.28-0.556 0.685-0.346-0.885-8.659 0.879-0.443 6.453 5.844 0.77-0.389 0.279 0.554-2.839 1.436-0.28-0.554 0.868-0.439-1.521-1.385-3.284 1.66 0.214 2.046 0.857-0.434 0.28 0.555-2.196 1.11zm0.776-3.95l2.865-1.449-3.31-2.987 0.445 4.44z"/>
		<path d="m78.594 162.4c0.277-0.059 0.545-0.051 0.801 0.019 0.257 0.069 0.526 0.213 0.811 0.429l2.306 1.741 0.952-0.479 0.279 0.554-1.84 0.932-2.475-1.868c-0.477-0.362-0.848-0.565-1.115-0.607s-0.57 0.022-0.912 0.195l-1.166 0.589 1.555 3.075 1.104-0.559 0.279 0.555-3.158 1.597-0.279-0.554 0.993-0.503-3.384-6.693-0.994 0.503-0.283-0.56 3.959-2.001c0.76-0.385 1.438-0.499 2.035-0.348 0.596 0.154 1.063 0.564 1.399 1.23 0.271 0.536 0.334 1.035 0.188 1.496s-0.498 0.88-1.055 1.26zm-2.643 0.94l1.543-0.779c0.526-0.268 0.852-0.587 0.977-0.964 0.125-0.376 0.056-0.825-0.209-1.349-0.264-0.522-0.584-0.845-0.961-0.966-0.376-0.12-0.827-0.048-1.354 0.218l-1.542 0.78 1.546 3.06z"/>
		<path d="m84.078 164.49l-0.281-0.555 0.994-0.502-3.385-6.693-0.993 0.502-0.282-0.559 3.105-1.57c1.346-0.681 2.567-0.867 3.666-0.561s1.957 1.071 2.576 2.296c0.62 1.228 0.729 2.376 0.324 3.446-0.404 1.07-1.277 1.945-2.619 2.624l-3.105 1.56zm1.774-1.59l0.973-0.491c1.016-0.513 1.646-1.196 1.896-2.049 0.25-0.854 0.102-1.819-0.445-2.899-0.547-1.081-1.234-1.771-2.063-2.068-0.83-0.299-1.753-0.19-2.771 0.323l-0.973 0.491 3.383 6.7z"/>
	</g>
	<g fill="#241E51">
		<path d="m18.564 195.02c0.138 0.845 0.031 1.592-0.322 2.241-0.352 0.647-0.943 1.183-1.773 1.602-0.508 0.258-1.025 0.409-1.549 0.455s-1.04-0.015-1.549-0.182c-0.588-0.193-1.103-0.49-1.544-0.892-0.441-0.4-0.82-0.915-1.138-1.542-0.613-1.214-0.758-2.369-0.434-3.468s1.061-1.938 2.207-2.518c0.426-0.216 0.906-0.39 1.443-0.521 0.538-0.131 1.142-0.224 1.811-0.277l0.909 1.8-0.591 0.299c-0.46-0.591-0.963-0.942-1.509-1.058-0.546-0.112-1.169 0.008-1.869 0.361-0.833 0.421-1.315 1.035-1.445 1.844s0.095 1.784 0.675 2.933c0.578 1.144 1.23 1.901 1.959 2.275 0.728 0.374 1.508 0.351 2.341-0.07 0.582-0.295 0.991-0.676 1.228-1.144s0.299-1.019 0.188-1.654l0.962-0.48z"/>
		<path d="m23.422 190.3c0.278-0.059 0.545-0.052 0.801 0.02 0.257 0.068 0.526 0.212 0.811 0.427l2.306 1.743 0.952-0.481 0.279 0.556-1.84 0.93-2.475-1.867c-0.477-0.363-0.848-0.564-1.115-0.607-0.266-0.042-0.57 0.021-0.912 0.194l-1.166 0.59 1.555 3.075 1.104-0.559 0.28 0.555-3.159 1.597-0.279-0.555 0.993-0.502-3.384-6.693-0.994 0.502-0.283-0.559 3.959-2.001c0.76-0.385 1.438-0.5 2.035-0.347 0.596 0.152 1.063 0.563 1.399 1.229 0.271 0.537 0.334 1.036 0.188 1.496s-0.498 0.87-1.055 1.25zm-2.643 0.94l1.543-0.78c0.526-0.266 0.852-0.587 0.977-0.963s0.056-0.826-0.209-1.349c-0.264-0.523-0.584-0.846-0.961-0.965-0.376-0.121-0.827-0.05-1.354 0.218l-1.542 0.78 1.546 3.06z"/>
		<path d="m28.906 192.39l-0.281-0.555 0.994-0.503-3.385-6.692-0.993 0.503-0.282-0.561 6.285-3.178 0.877 1.736-0.643 0.323-0.553-1.092-3.588 1.813 1.322 2.613 2.558-1.293-0.495-0.978 0.644-0.325 1.312 2.594-0.644 0.324-0.494-0.977-2.558 1.292 1.652 3.269 3.672-1.855-0.553-1.094 0.643-0.324 0.878 1.735-6.368 3.23z"/>
		<path d="m36.723 188.44l-0.279-0.555 0.992-0.503-3.384-6.692-0.993 0.503-0.283-0.561 3.106-1.569c1.346-0.682 2.567-0.867 3.666-0.562 1.099 0.309 1.958 1.072 2.576 2.296 0.62 1.228 0.728 2.376 0.324 3.447-0.404 1.07-1.276 1.945-2.619 2.624l-3.106 1.57zm1.775-1.6l0.973-0.491c1.014-0.514 1.646-1.196 1.896-2.049 0.25-0.854 0.101-1.819-0.445-2.899-0.546-1.081-1.234-1.771-2.063-2.069s-1.753-0.189-2.771 0.324l-0.973 0.492 3.383 6.7z"/>
		<path d="m47.084 182.5l0.994-0.502 0.279 0.555-3.048 1.542-0.28-0.556 0.994-0.502-3.385-6.692-0.993 0.502-0.283-0.56 3.048-1.542 0.283 0.561-0.993 0.502 3.384 6.69z"/>
		<path d="m50.994 181.22l-0.281-0.555 0.999-0.505-3.353-6.631-2.295 1.161 0.615 1.218-0.643 0.326-0.931-1.841 6.934-3.506 0.931 1.841-0.644 0.325-0.616-1.22-2.295 1.161 3.352 6.63 1-0.505 0.279 0.555-3.052 1.54z"/>
		<path d="m66.002 171.04c0.139 0.846 0.031 1.592-0.321 2.241-0.353 0.648-0.944 1.183-1.773 1.603-0.509 0.258-1.025 0.408-1.55 0.455-0.523 0.045-1.04-0.015-1.549-0.182-0.588-0.193-1.103-0.49-1.543-0.891-0.441-0.401-0.82-0.915-1.139-1.543-0.613-1.214-0.758-2.369-0.434-3.468s1.061-1.938 2.207-2.519c0.426-0.215 0.907-0.388 1.445-0.521 0.537-0.132 1.14-0.225 1.809-0.277l0.91 1.799-0.592 0.299c-0.46-0.59-0.963-0.94-1.508-1.056-0.546-0.114-1.169 0.007-1.87 0.359-0.833 0.423-1.314 1.036-1.444 1.845-0.131 0.808 0.095 1.784 0.674 2.932 0.578 1.144 1.231 1.902 1.959 2.276s1.508 0.351 2.341-0.07c0.582-0.294 0.991-0.676 1.228-1.143 0.236-0.469 0.3-1.021 0.188-1.655l0.962-0.48z"/>
		<path d="m67.627 172.81l-0.28-0.556 0.685-0.346-0.885-8.659 0.879-0.443 6.453 5.844 0.77-0.389 0.279 0.554-2.839 1.436-0.28-0.554 0.868-0.439-1.521-1.385-3.284 1.66 0.214 2.046 0.857-0.434 0.28 0.555-2.196 1.11zm0.776-3.95l2.865-1.449-3.31-2.987 0.445 4.44z"/>
		<path d="m78.594 162.4c0.277-0.059 0.545-0.051 0.801 0.019 0.257 0.069 0.526 0.213 0.811 0.429l2.306 1.741 0.952-0.479 0.279 0.554-1.84 0.932-2.475-1.868c-0.477-0.362-0.848-0.565-1.115-0.607s-0.57 0.022-0.912 0.195l-1.166 0.589 1.555 3.075 1.104-0.559 0.279 0.555-3.158 1.597-0.279-0.554 0.993-0.503-3.384-6.693-0.994 0.503-0.283-0.56 3.959-2.001c0.76-0.385 1.438-0.499 2.035-0.348 0.596 0.154 1.063 0.564 1.399 1.23 0.271 0.536 0.334 1.035 0.188 1.496s-0.498 0.88-1.055 1.26zm-2.643 0.94l1.543-0.779c0.526-0.268 0.852-0.587 0.977-0.964 0.125-0.376 0.056-0.825-0.209-1.349-0.264-0.522-0.584-0.845-0.961-0.966-0.376-0.12-0.827-0.048-1.354 0.218l-1.542 0.78 1.546 3.06z"/>
		<path d="m84.078 164.49l-0.281-0.555 0.994-0.502-3.385-6.693-0.993 0.502-0.282-0.559 3.105-1.57c1.346-0.681 2.567-0.867 3.666-0.561s1.957 1.071 2.576 2.296c0.62 1.228 0.729 2.376 0.324 3.446-0.404 1.07-1.277 1.945-2.619 2.624l-3.105 1.56zm1.774-1.59l0.973-0.491c1.016-0.513 1.646-1.196 1.896-2.049 0.25-0.854 0.102-1.819-0.445-2.899-0.547-1.081-1.234-1.771-2.063-2.068-0.83-0.299-1.753-0.19-2.771 0.323l-0.973 0.491 3.383 6.7z"/>
	</g>
	<path stroke="#000" stroke-width=".5" stroke-miterlimit="10" d="m135.51 151.33l23.421 46.8c2.534 5.066 2.713 9.812-1.894 11.988s-112.9 56.72-112.9 56.72-6.528 0.73-8.983-3.914c-2.455-4.646-33.712-66.621-33.712-66.621s-3.963-5.931 4.323-10.108 84.785-43.082 84.785-43.082" fill="none"/>
			<linearGradient id="rect3016_2_" x1="-38.744" gradientUnits="userSpaceOnUse" y1="1276.7" gradientTransform="matrix(.8889 -.458 .458 .8889 -511.94 -946.53)" x2="-47.044" y2="1289.1">
			<stop stop-color="#FFD42A" offset="0"/>
			<stop stop-color="#FFE78C" offset=".5"/>
			<stop stop-color="#FFD635" offset="1"/>
		</linearGradient>
		<path id="rect3016_1_" fill="url(#rect3016_2_)" d="m27.578 205.61l9.836-5.068c2.717-1.397 6.054-0.332 7.454 2.386l5.069 9.837c1.4 2.716 0.333 6.054-2.384 7.453l-9.837 5.068c-2.717 1.4-6.053 0.332-7.454-2.385l-5.069-9.836c-1.4-2.71-0.332-6.04 2.385-7.45z"/>
		<path d="m50.159 212.65l-5.069-9.837c-0.997-1.936-2.969-3.136-5.146-3.136-0.913 0-1.827 0.223-2.645 0.643l-9.836 5.068c-2.834 1.461-3.952 4.957-2.492 7.792l5.069 9.836c0.998 1.935 2.969 3.137 5.146 3.137 0.913 0 1.828-0.223 2.645-0.644l9.836-5.069c1.374-0.708 2.389-1.908 2.86-3.38 0.471-1.47 0.34-3.03-0.368-4.41zm-0.229 0.77l-5.654 2.913-2.431-4.719 5.704-2.938 2.166 4.203c0.09 0.19 0.145 0.37 0.215 0.55zm-7.546 8.19l0.405 0.784-0.539 0.277-0.405-0.784 0.539-0.28zm-3.139 1.05l-4.958 2.555 0.199 0.391c-0.14-0.02-0.276-0.053-0.414-0.082l-1.372-2.662 5.212-2.687 1.077 2.091 2.459-1.269 0.214 0.416-2.417 1.24zm-0.039-1.06l-1.078-2.092-1.229 0.636-4.954-9.616-0.001 0.001-0.677-1.314 1.229-0.635-1.076-2.09 4.473-2.306 1.076 2.091 1.231-0.633 1.674 3.247 3.958 7.682-1.229 0.635 1.076 2.09-4.473 2.31zm-5.838-7.22l0.551 1.067-5.705 2.94-2.306-4.475 5.705-2.938 1.755 3.4zm5.942-7.68l5.704-2.939 2.306 4.477-5.704 2.938-2.306-4.48zm5.336-3.66l0.138 0.269-5.704 2.939-0.665-1.29-1.231 0.634-1.076-2.092-2.46 1.27-0.182-0.355 1.992-1.024v-0.001l5.87-3.024c1.415 0.37 2.625 1.32 3.318 2.66zm-11.901 1.19l-0.404-0.785 0.54-0.277 0.404 0.785-0.54 0.29zm4.783-3.46c0.757-0.391 1.57-0.588 2.416-0.588 0.194 0 0.385 0.019 0.575 0.04l-6.79 3.499-0.405-0.785 4.204-2.17zm-9.836 5.07l4.204-2.166 0.403 0.785-1.19 0.612v0.001l-5.603 2.886c0.491-0.88 1.23-1.63 2.186-2.12zm-2.506 2.84l6.153-3.171 1.684-0.867 0.183 0.354-2.458 1.269 1.076 2.09-1.229 0.635 0.791 1.535-5.705 2.939-0.265-0.515c-0.711-1.36-0.736-2.91-0.23-4.26zm3.258 10.15l5.705-2.939 2.305 4.475-5.669 2.921c-0.106-0.161-0.211-0.323-0.301-0.497l-2.04-3.95zm2.644 4.86l1.168-0.603 1.159 2.248c-0.91-0.32-1.713-0.89-2.327-1.65zm6.513 1.38c-0.757 0.391-1.57 0.589-2.416 0.589-0.04 0-0.077-0.007-0.117-0.008l-0.11-0.214 6.442-3.317 0.405 0.783-4.204 2.17zm9.837-5.07l-4.205 2.167-0.404-0.784 6.441-3.318 0.101 0.193c-0.489 0.72-1.135 1.33-1.933 1.74zm2.612-3.09c-0.096 0.3-0.225 0.582-0.369 0.855l-0.196-0.38-5.693 2.935-0.001-0.002-1.684 0.868-0.214-0.416 2.458-1.269-1.077-2.09 1.007-0.52 5.826-3.001c0.275 0.99 0.261 2.03-0.057 3.02z"/>
	<g fill="#231815">
		<path d="m90.644 221.62l-0.464-0.903c-0.067-0.131-0.057-0.255 0.109-0.34s0.272-0.021 0.339 0.109l0.579 1.129c0.083 0.162 0.008 0.279-0.108 0.339l-1.766 0.906c-0.116 0.06-0.256 0.052-0.339-0.11-0.083-0.16-0.007-0.278 0.109-0.339l0.658-0.338-1.328-2.589-0.659 0.338c-0.116 0.061-0.256 0.052-0.338-0.108-0.082-0.161-0.008-0.279 0.109-0.34l1.106-0.567 1.559 3.037 0.434-0.23z"/>
		<path d="m93.872 219.97l-0.465-0.904c-0.066-0.13-0.056-0.253 0.109-0.338 0.166-0.085 0.272-0.021 0.339 0.107l0.579 1.129c0.083 0.162 0.008 0.28-0.109 0.341l-1.765 0.904c-0.116 0.061-0.256 0.054-0.339-0.108-0.083-0.161-0.007-0.28 0.109-0.34l0.658-0.339-1.329-2.589-0.659 0.34c-0.116 0.061-0.256 0.054-0.339-0.107-0.082-0.161-0.007-0.28 0.109-0.34l1.106-0.567 1.559 3.037 0.437-0.22z"/>
		<path d="m95.926 219.28c-0.005 0.122-0.026 0.213-0.139 0.271-0.112 0.058-0.272 0.021-0.332-0.097-0.044-0.085-0.029-0.188-0.021-0.283l0.202-3.731c0.008-0.116 0.021-0.225 0.133-0.282 0.116-0.06 0.268-0.019 0.327 0.1 0.037 0.069 0.042 0.136 0.041 0.198l-0.211 3.82z"/>
		<path d="m100.33 216.66l-0.465-0.904c-0.066-0.13-0.057-0.253 0.109-0.339 0.166-0.084 0.271-0.021 0.339 0.109l0.579 1.129c0.083 0.162 0.008 0.279-0.109 0.34l-1.765 0.905c-0.116 0.06-0.256 0.052-0.339-0.11-0.083-0.16-0.008-0.279 0.109-0.339l0.659-0.338-1.329-2.589-0.659 0.338c-0.116 0.06-0.256 0.053-0.339-0.109-0.082-0.16-0.008-0.278 0.109-0.339l1.106-0.566 1.559 3.036 0.439-0.22z"/>
		<path d="m100.91 213.09c0.051 0.1 0.035 0.267-0.108 0.34-0.144 0.073-0.289-0.012-0.339-0.109l-0.115-0.224c-0.051-0.1-0.035-0.267 0.109-0.341l1.989-1.021 0.667 1.3c0.08 0.156 0.094 0.173 0.024 0.345l-0.35 0.863c-0.063 0.162-0.068 0.176 0.013 0.333l0.445 0.869c0.074 0.144 0.053 0.257-0.108 0.34s-0.266 0.034-0.339-0.108l-0.554-1.079c-0.076-0.148-0.078-0.164-0.017-0.32l0.345-0.85c0.081-0.207 0.074-0.196-0.027-0.395l-0.317-0.619-1.3 0.69z"/>
	</g>
	<g fill="#fff">
		<path d="m90.3 221.47l-0.464-0.904c-0.067-0.13-0.057-0.254 0.109-0.339s0.272-0.021 0.339 0.108l0.579 1.129c0.083 0.162 0.008 0.279-0.108 0.34l-1.766 0.905c-0.116 0.061-0.256 0.053-0.339-0.109-0.083-0.161-0.007-0.279 0.109-0.339l0.658-0.339-1.328-2.589-0.659 0.338c-0.116 0.061-0.256 0.053-0.338-0.108s-0.008-0.279 0.109-0.339l1.106-0.568 1.559 3.037 0.434-0.23z"/>
		<path d="m93.528 219.81l-0.465-0.904c-0.066-0.13-0.056-0.253 0.109-0.338 0.166-0.085 0.272-0.021 0.339 0.108l0.579 1.129c0.083 0.162 0.008 0.279-0.109 0.34l-1.765 0.905c-0.116 0.06-0.256 0.053-0.339-0.109-0.083-0.161-0.007-0.28 0.109-0.34l0.658-0.338-1.329-2.589-0.659 0.338c-0.116 0.06-0.256 0.053-0.339-0.108-0.082-0.161-0.007-0.28 0.109-0.34l1.106-0.57 1.559 3.037 0.437-0.23z"/>
		<path d="m95.583 219.13c-0.005 0.122-0.026 0.213-0.139 0.271-0.112 0.058-0.272 0.021-0.332-0.096-0.044-0.086-0.029-0.188-0.021-0.283l0.202-3.732c0.008-0.116 0.021-0.225 0.133-0.282 0.116-0.06 0.268-0.019 0.327 0.1 0.037 0.069 0.042 0.136 0.041 0.199l-0.211 3.82z"/>
		<path d="m99.983 216.5l-0.465-0.903c-0.066-0.131-0.057-0.253 0.109-0.34 0.166-0.084 0.271-0.021 0.339 0.109l0.579 1.129c0.083 0.162 0.008 0.279-0.109 0.34l-1.765 0.905c-0.116 0.06-0.256 0.052-0.339-0.11-0.083-0.159-0.008-0.278 0.109-0.339l0.659-0.338-1.329-2.589-0.659 0.338c-0.116 0.061-0.256 0.053-0.339-0.108-0.082-0.16-0.008-0.279 0.109-0.34l1.106-0.566 1.559 3.037 0.442-0.22z"/>
		<path d="m100.56 212.93c0.051 0.099 0.035 0.266-0.108 0.339-0.144 0.074-0.289-0.011-0.339-0.109l-0.115-0.224c-0.051-0.1-0.035-0.267 0.109-0.34l1.989-1.021 0.667 1.3c0.08 0.156 0.094 0.174 0.024 0.346l-0.35 0.862c-0.063 0.162-0.068 0.177 0.013 0.333l0.445 0.869c0.074 0.145 0.053 0.257-0.108 0.34s-0.266 0.034-0.339-0.108l-0.554-1.079c-0.076-0.148-0.078-0.164-0.017-0.32l0.345-0.85c0.081-0.207 0.074-0.196-0.027-0.395l-0.317-0.619-1.29 0.67z"/>
	</g>
				<rect transform="matrix(-.8954 .4453 -.4453 -.8954 351.17 329.29)" height="11.219" width="32.628" y="200.29" x="120.59" fill="#fff"/>
			<polygon points="135.42 211.48 132.96 203.34 135.01 202.32 137.47 210.47" fill="#00249F"/>
			<path d="m141.25 199.45c-0.48 0.049-1.198 0.202-1.992 0.598-2.022 1.006-2.94 2.732-2.227 4.198 0.525 1.084 1.854 1.175 2.808 1.148 0.979-0.029 1.365 0.071 1.524 0.403 0.244 0.506-0.271 1.05-0.859 1.343-0.82 0.406-1.312 0.51-2.123 0.563l-0.323 0.013 0.548 1.824c0.583-0.028 1.557-0.287 2.479-0.733 2.151-1.07 3.047-2.771 2.289-4.338-0.417-0.858-1.286-1.237-2.733-1.187-0.889 0.009-1.442-0.006-1.612-0.36-0.155-0.312 0.049-0.829 0.85-1.229 0.665-0.343 1.223-0.438 1.676-0.475l0.227-0.005-0.55-1.75" fill="#00249F"/>
			<path d="m146.41 196.66l-1.582 0.786c-0.49 0.244-0.79 0.562-0.762 1.156l0.383 8.394 2.148-1.068s-0.109-1.101-0.131-1.343c0.235-0.116 2.325-1.151 2.624-1.301 0.19 0.232 0.808 1.001 0.808 1.001l1.899-0.943-5.39-6.69m-0.12 6.1c-0.046-0.517-0.229-2.505-0.229-2.505-0.002 0.025-0.047-0.519-0.084-0.852l0.459 0.578s1.285 1.598 1.553 1.933l-1.7 0.84z" fill="#00249F"/>
			<path d="m129.97 204.84l0.543 6.117-0.731-0.935c-0.97-1.016-2.778-1.735-4.401-1.74l5.099 5.656 2.165-1.079-0.505-9.099-2.17 1.08" fill="#00249F"/>
			<path d="m126.1 206.75l-3.3 1.644 0.051 0.168c2.877-0.655 5.323 0.002 6.926 1.456l-2.434-3.095c-0.36-0.41-0.79-0.37-1.25-0.17" fill="#FFA000"/>
	<g display="none" fill="#fff">
		<path d="m39.675 242.51l-0.308-0.64-1.158 0.559-0.145-0.302 0.385-2.313 0.268-0.129 0.833 1.729 0.36-0.174 0.145 0.301-0.36 0.174 0.308 0.64-0.328 0.15zm-0.452-0.94l-0.579-1.201-0.256 1.604 0.835-0.4z" display="inline"/>
		<path d="m40.361 241.32l0.33-0.193c0.106 0.154 0.226 0.252 0.359 0.291 0.134 0.041 0.266 0.028 0.396-0.034 0.158-0.075 0.263-0.199 0.314-0.371 0.052-0.172 0.031-0.354-0.064-0.553-0.089-0.187-0.213-0.309-0.37-0.366-0.157-0.058-0.32-0.045-0.49 0.037-0.106 0.052-0.189 0.121-0.251 0.208-0.062 0.091-0.099 0.185-0.11 0.283l-0.327 0.109-0.401-1.496 1.326-0.639 0.151 0.313-1.064 0.513 0.201 0.786c0.106-0.188 0.248-0.325 0.424-0.41 0.233-0.11 0.468-0.126 0.706-0.041 0.237 0.083 0.417 0.252 0.54 0.507 0.116 0.24 0.146 0.483 0.09 0.728-0.067 0.299-0.249 0.52-0.544 0.662-0.242 0.116-0.474 0.144-0.692 0.082-0.219-0.07-0.394-0.21-0.524-0.42z" display="inline"/>
		<path d="m41.676 238.69l-0.152-0.315 1.727-0.831 0.123 0.255c-0.083 0.263-0.136 0.583-0.158 0.965-0.023 0.38-0.003 0.75 0.059 1.109 0.042 0.254 0.118 0.521 0.228 0.794l-0.337 0.162c-0.098-0.212-0.179-0.484-0.243-0.819-0.064-0.336-0.089-0.678-0.074-1.023 0.015-0.346 0.059-0.655 0.134-0.924l-1.307 0.63z" display="inline"/>
		<path d="m44.596 239.38l0.301-0.182c0.098 0.136 0.2 0.219 0.308 0.249 0.107 0.031 0.22 0.018 0.338-0.039 0.101-0.048 0.178-0.114 0.231-0.196s0.086-0.174 0.098-0.273c0.012-0.101 0.002-0.226-0.028-0.371-0.03-0.146-0.079-0.288-0.144-0.424-0.007-0.016-0.018-0.036-0.033-0.064-0.016 0.136-0.064 0.265-0.146 0.383-0.082 0.119-0.189 0.211-0.321 0.275-0.221 0.104-0.447 0.115-0.677 0.029-0.229-0.087-0.408-0.263-0.534-0.523-0.13-0.271-0.155-0.527-0.075-0.769s0.241-0.42 0.481-0.536c0.173-0.083 0.354-0.113 0.543-0.089 0.188 0.023 0.361 0.104 0.52 0.24 0.158 0.138 0.315 0.37 0.474 0.697 0.163 0.341 0.257 0.63 0.28 0.867 0.023 0.238-0.013 0.445-0.107 0.622-0.096 0.176-0.242 0.311-0.438 0.405-0.208 0.101-0.408 0.124-0.595 0.07-0.191-0.05-0.349-0.17-0.476-0.37zm0.774-1.82c-0.091-0.188-0.213-0.313-0.366-0.375-0.152-0.063-0.3-0.061-0.44 0.008-0.146 0.07-0.244 0.189-0.295 0.361-0.051 0.171-0.03 0.352 0.062 0.541 0.081 0.169 0.199 0.282 0.352 0.339 0.154 0.058 0.306 0.049 0.457-0.023 0.151-0.073 0.25-0.186 0.297-0.339 0.045-0.15 0.024-0.33-0.067-0.51z" display="inline"/>
	</g>
	<g display="none" fill="#fff">
		<path d="m39.675 242.51l-0.308-0.64-1.158 0.559-0.145-0.302 0.385-2.313 0.268-0.129 0.833 1.729 0.36-0.174 0.145 0.301-0.36 0.174 0.308 0.64-0.328 0.15zm-0.452-0.94l-0.579-1.201-0.256 1.604 0.835-0.4z" display="inline"/>
		<path d="m40.361 241.32l0.33-0.193c0.106 0.154 0.226 0.252 0.359 0.291 0.134 0.041 0.266 0.028 0.396-0.034 0.158-0.075 0.263-0.199 0.314-0.371 0.052-0.172 0.031-0.354-0.064-0.553-0.089-0.187-0.213-0.309-0.37-0.366-0.157-0.058-0.32-0.045-0.49 0.037-0.106 0.052-0.189 0.121-0.251 0.208-0.062 0.091-0.099 0.185-0.11 0.283l-0.327 0.109-0.401-1.496 1.326-0.639 0.151 0.313-1.064 0.513 0.201 0.786c0.106-0.188 0.248-0.325 0.424-0.41 0.233-0.11 0.468-0.126 0.706-0.041 0.237 0.083 0.417 0.252 0.54 0.507 0.116 0.24 0.146 0.483 0.09 0.728-0.067 0.299-0.249 0.52-0.544 0.662-0.242 0.116-0.474 0.144-0.692 0.082-0.219-0.07-0.394-0.21-0.524-0.42z" display="inline"/>
		<path d="m41.676 238.69l-0.152-0.315 1.727-0.831 0.123 0.255c-0.083 0.263-0.136 0.583-0.158 0.965-0.023 0.38-0.003 0.75 0.059 1.109 0.042 0.254 0.118 0.521 0.228 0.794l-0.337 0.162c-0.098-0.212-0.179-0.484-0.243-0.819-0.064-0.336-0.089-0.678-0.074-1.023 0.015-0.346 0.059-0.655 0.134-0.924l-1.307 0.63z" display="inline"/>
		<path d="m44.596 239.38l0.301-0.182c0.098 0.136 0.2 0.219 0.308 0.249 0.107 0.031 0.22 0.018 0.338-0.039 0.101-0.048 0.178-0.114 0.231-0.196s0.086-0.174 0.098-0.273c0.012-0.101 0.002-0.226-0.028-0.371-0.03-0.146-0.079-0.288-0.144-0.424-0.007-0.016-0.018-0.036-0.033-0.064-0.016 0.136-0.064 0.265-0.146 0.383-0.082 0.119-0.189 0.211-0.321 0.275-0.221 0.104-0.447 0.115-0.677 0.029-0.229-0.087-0.408-0.263-0.534-0.523-0.13-0.271-0.155-0.527-0.075-0.769s0.241-0.42 0.481-0.536c0.173-0.083 0.354-0.113 0.543-0.089 0.188 0.023 0.361 0.104 0.52 0.24 0.158 0.138 0.315 0.37 0.474 0.697 0.163 0.341 0.257 0.63 0.28 0.867 0.023 0.238-0.013 0.445-0.107 0.622-0.096 0.176-0.242 0.311-0.438 0.405-0.208 0.101-0.408 0.124-0.595 0.07-0.191-0.05-0.349-0.17-0.476-0.37zm0.774-1.82c-0.091-0.188-0.213-0.313-0.366-0.375-0.152-0.063-0.3-0.061-0.44 0.008-0.146 0.07-0.244 0.189-0.295 0.361-0.051 0.171-0.03 0.352 0.062 0.541 0.081 0.169 0.199 0.282 0.352 0.339 0.154 0.058 0.306 0.049 0.457-0.023 0.151-0.073 0.25-0.186 0.297-0.339 0.045-0.15 0.024-0.33-0.067-0.51z" display="inline"/>
	</g>
	<g fill="#fff">
		<path d="m77.929 224.86l-0.101-0.211 0.762-0.364 0.317 0.668c-0.072 0.148-0.16 0.276-0.261 0.382-0.103 0.106-0.219 0.191-0.35 0.254-0.176 0.084-0.355 0.123-0.535 0.115-0.181-0.006-0.342-0.063-0.483-0.172-0.143-0.109-0.255-0.25-0.339-0.428-0.083-0.174-0.125-0.354-0.124-0.542s0.052-0.35 0.154-0.488c0.103-0.139 0.243-0.251 0.422-0.337 0.13-0.063 0.258-0.097 0.383-0.104s0.236 0.012 0.331 0.059c0.096 0.047 0.188 0.123 0.277 0.229l-0.188 0.162c-0.07-0.079-0.138-0.135-0.203-0.169-0.064-0.033-0.143-0.048-0.231-0.043-0.09 0.004-0.18 0.026-0.271 0.07-0.108 0.051-0.195 0.113-0.259 0.184-0.063 0.071-0.106 0.146-0.129 0.225-0.023 0.076-0.033 0.152-0.029 0.229 0.007 0.135 0.042 0.265 0.104 0.396 0.076 0.159 0.167 0.28 0.274 0.361 0.107 0.083 0.225 0.124 0.356 0.126s0.255-0.024 0.374-0.082c0.103-0.049 0.194-0.115 0.273-0.202s0.133-0.164 0.163-0.232l-0.16-0.336-0.527 0.25z"/>
		<path d="m78.888 224.19c-0.142-0.298-0.173-0.57-0.094-0.816 0.08-0.245 0.247-0.428 0.5-0.549 0.166-0.079 0.334-0.109 0.505-0.095 0.172 0.016 0.325 0.078 0.463 0.187s0.25 0.253 0.335 0.434c0.088 0.183 0.128 0.362 0.123 0.542-0.005 0.179-0.057 0.338-0.157 0.477-0.099 0.14-0.227 0.245-0.383 0.319-0.17 0.081-0.341 0.11-0.513 0.093s-0.327-0.081-0.463-0.189c-0.135-0.1-0.241-0.23-0.316-0.39zm0.248-0.11c0.103 0.216 0.242 0.359 0.418 0.431 0.176 0.067 0.352 0.061 0.528-0.022 0.179-0.086 0.296-0.22 0.352-0.4 0.057-0.181 0.029-0.387-0.082-0.618-0.07-0.146-0.156-0.264-0.257-0.349s-0.214-0.135-0.338-0.149c-0.124-0.016-0.245 0.006-0.363 0.063-0.169 0.08-0.286 0.208-0.353 0.381-0.066 0.18-0.035 0.4 0.095 0.67z"/>
		<path d="m80.842 223.26c-0.142-0.299-0.173-0.57-0.093-0.815s0.247-0.429 0.5-0.549c0.166-0.079 0.334-0.11 0.505-0.095 0.172 0.016 0.326 0.076 0.463 0.186 0.137 0.109 0.25 0.254 0.335 0.434 0.087 0.184 0.128 0.363 0.123 0.541-0.005 0.181-0.057 0.339-0.157 0.478-0.099 0.139-0.227 0.245-0.383 0.319-0.169 0.08-0.341 0.11-0.513 0.094-0.172-0.02-0.327-0.082-0.463-0.19-0.136-0.11-0.242-0.24-0.317-0.4zm0.248-0.11c0.103 0.216 0.242 0.359 0.418 0.43 0.176 0.068 0.352 0.063 0.528-0.021 0.179-0.085 0.296-0.22 0.352-0.4 0.056-0.181 0.029-0.387-0.082-0.619-0.07-0.146-0.156-0.263-0.258-0.347-0.101-0.085-0.214-0.136-0.338-0.15-0.124-0.016-0.245 0.005-0.363 0.063-0.169 0.08-0.286 0.208-0.353 0.381-0.065 0.18-0.034 0.4 0.096 0.67z"/>
		<path d="m83.287 223.17l-0.857-1.798 0.62-0.295c0.14-0.066 0.251-0.108 0.332-0.128 0.114-0.024 0.224-0.023 0.325 0.004 0.133 0.034 0.253 0.104 0.359 0.206s0.198 0.232 0.274 0.394c0.065 0.137 0.107 0.266 0.125 0.387 0.018 0.12 0.019 0.227 0.001 0.32-0.017 0.093-0.045 0.174-0.085 0.24-0.041 0.068-0.098 0.132-0.172 0.192s-0.165 0.116-0.273 0.168l-0.649 0.31zm0.136-0.32l0.384-0.185c0.119-0.056 0.207-0.11 0.263-0.166 0.058-0.054 0.096-0.11 0.117-0.171 0.029-0.082 0.037-0.18 0.023-0.289s-0.054-0.232-0.118-0.369c-0.09-0.188-0.189-0.317-0.299-0.39-0.11-0.071-0.218-0.104-0.322-0.097-0.075 0.007-0.184 0.043-0.325 0.109l-0.378 0.182 0.655 1.39z"/>
		<path d="m78.981 228.06l-0.756-1.586-0.592 0.281-0.102-0.212 1.426-0.68 0.101 0.212-0.595 0.284 0.756 1.586-0.238 0.12z"/>
		<path d="m80.254 227.45l-0.857-1.798 0.238-0.114 0.353 0.738 0.935-0.445-0.352-0.738 0.238-0.112 0.857 1.798-0.238 0.113-0.404-0.849-0.935 0.446 0.404 0.848-0.239 0.1z"/>
		<path d="m82.253 226.5l-0.856-1.798 0.797-0.38c0.161-0.076 0.29-0.119 0.389-0.126 0.099-0.008 0.192 0.018 0.282 0.076 0.089 0.058 0.157 0.136 0.204 0.234 0.061 0.127 0.071 0.254 0.03 0.383-0.041 0.126-0.142 0.241-0.303 0.349 0.077 0 0.139 0.008 0.186 0.021 0.1 0.032 0.204 0.079 0.312 0.146l0.545 0.34-0.299 0.143-0.417-0.259c-0.121-0.075-0.217-0.132-0.29-0.168-0.072-0.035-0.132-0.056-0.179-0.062-0.046-0.006-0.09-0.005-0.131 0.004-0.03 0.007-0.075 0.024-0.137 0.055l-0.276 0.132 0.38 0.798-0.237 0.13zm-0.241-1.12l0.511-0.243c0.109-0.053 0.189-0.104 0.24-0.154 0.051-0.051 0.081-0.11 0.088-0.175 0.008-0.065-0.002-0.127-0.029-0.185-0.04-0.086-0.104-0.141-0.192-0.166s-0.199-0.007-0.332 0.058l-0.569 0.271 0.283 0.58z"/>
		<path d="m84.576 223.18l0.238-0.113 0.495 1.039c0.086 0.181 0.134 0.333 0.144 0.46 0.01 0.126-0.022 0.247-0.098 0.364-0.074 0.118-0.199 0.218-0.372 0.301-0.169 0.081-0.32 0.117-0.455 0.11-0.135-0.009-0.251-0.056-0.35-0.145-0.099-0.088-0.192-0.228-0.283-0.417l-0.495-1.039 0.238-0.114 0.495 1.037c0.074 0.156 0.144 0.266 0.208 0.325 0.064 0.061 0.142 0.094 0.231 0.1 0.09 0.009 0.186-0.015 0.288-0.063 0.175-0.083 0.281-0.183 0.318-0.297 0.037-0.115 0.001-0.286-0.106-0.512l-0.496-1.05z"/>
	</g>
	<polygon points="85.573 222.87 87.067 223.13 86.376 224.48" fill="#fff"/>
		<radialGradient id="SVGID_7_" gradientUnits="userSpaceOnUse" cy="-49.572" cx="100.52" gradientTransform="matrix(1 0 0 -.6499 8.48 114.7)" r="29.759">
		<stop offset=".4367"/>
		<stop stop-opacity="0" offset=".8105"/>
	</radialGradient>
	<path opacity=".4" enable-background="new    " d="m137.99 156.28l-2.479-4.953-15.587 0.393s-8.313 4.313-9.969 5-5.775 1.143-6.848 1.035c-3.792-0.378-2.364 0.008-6.867-1.709s-5.727-5.465-5.917-7.169 0-5.643 0-5.643l-7.447 3.752s-1.946 4.483 1.144 9.479c3.09 4.994 6.063 8.1 17.198 8.769 11.14 0.67 36.78-8.96 36.78-8.96z" fill="url(#SVGID_7_)"/>
		<path d="m37.991 234.15l-2.52 1.299c-0.205 0.105-0.456 0.014-0.554-0.177l-0.967-1.875c-0.099-0.19-0.028-0.449 0.177-0.555l2.886-1.488c0.205-0.105 0.457-0.013 0.555 0.178l2.56 4.965c0.103 0.198 0.043 0.441-0.177 0.555l-0.366 0.189c-0.22 0.113-0.453 0.021-0.555-0.178-0.113-0.22-0.035-0.445 0.177-0.555l-1.216-2.37zm-0.377-0.73l-0.589-1.144-2.153 1.109 0.589 1.144 2.153-1.11z"/>
		<path d="m43.264 231.43l-2.52 1.299c-0.205 0.106-0.456 0.015-0.554-0.177l-0.967-1.875c-0.099-0.189-0.028-0.449 0.177-0.555l2.886-1.487c0.205-0.105 0.457-0.013 0.555 0.178l2.56 4.965c0.102 0.198 0.042 0.441-0.177 0.555l-0.366 0.188c-0.22 0.113-0.453 0.021-0.555-0.177-0.113-0.22-0.035-0.446 0.177-0.556l-1.216-2.36zm-0.377-0.73l-0.589-1.144-2.153 1.11 0.589 1.144 2.153-1.11z"/>
		<path d="m48.536 228.72l-2.52 1.299c-0.205 0.105-0.456 0.014-0.554-0.177l-0.967-1.875c-0.099-0.19-0.028-0.449 0.177-0.555l2.886-1.487c0.205-0.105 0.457-0.014 0.555 0.178l2.56 4.965c0.102 0.197 0.042 0.441-0.177 0.555l-0.366 0.188c-0.22 0.113-0.453 0.021-0.555-0.178-0.113-0.22-0.035-0.445 0.177-0.555l-1.216-2.36zm-0.377-0.74l-0.589-1.144-2.153 1.11 0.589 1.144 2.153-1.11z"/>
		<path d="m53.809 226l-2.52 1.299c-0.205 0.105-0.456 0.014-0.554-0.177l-0.967-1.875c-0.099-0.19-0.028-0.449 0.177-0.555l2.886-1.488c0.205-0.105 0.457-0.013 0.555 0.178l2.56 4.965c0.102 0.198 0.042 0.441-0.177 0.555l-0.366 0.189c-0.22 0.113-0.453 0.021-0.555-0.178-0.113-0.22-0.036-0.445 0.177-0.555l-1.216-2.36zm-0.377-0.73l-0.589-1.144-2.153 1.109 0.589 1.144 2.153-1.11z"/>
		<path d="m64.354 220.56l-2.52 1.299c-0.205 0.105-0.456 0.014-0.554-0.177l-0.967-1.875c-0.098-0.19-0.028-0.449 0.177-0.555l2.886-1.487c0.205-0.105 0.457-0.013 0.556 0.178l2.56 4.965c0.102 0.198 0.042 0.441-0.178 0.555l-0.366 0.188c-0.22 0.113-0.453 0.021-0.555-0.177-0.113-0.221-0.035-0.446 0.177-0.556l-1.216-2.35zm-0.377-0.73l-0.589-1.144-2.153 1.11 0.589 1.144 2.153-1.11z"/>
		<path d="m69.626 217.84l-2.519 1.299c-0.205 0.105-0.457 0.014-0.554-0.177l-0.967-1.875c-0.098-0.19-0.028-0.449 0.177-0.555l2.885-1.487c0.205-0.106 0.457-0.014 0.556 0.177l2.56 4.965c0.102 0.198 0.042 0.442-0.178 0.556l-0.366 0.188c-0.219 0.113-0.453 0.021-0.555-0.178-0.113-0.22-0.035-0.445 0.177-0.555l-1.216-2.36zm-0.377-0.73l-0.589-1.144-2.153 1.11 0.589 1.143 2.153-1.11z"/>
		<path d="m74.898 215.13l-2.519 1.299c-0.205 0.105-0.457 0.014-0.554-0.177l-0.967-1.875c-0.098-0.19-0.028-0.449 0.177-0.555l2.886-1.488c0.205-0.105 0.457-0.013 0.555 0.178l2.56 4.965c0.102 0.198 0.042 0.441-0.177 0.555l-0.367 0.189c-0.219 0.113-0.453 0.021-0.555-0.178-0.113-0.22-0.035-0.445 0.177-0.555l-1.216-2.37zm-0.377-0.74l-0.589-1.144-2.153 1.109 0.589 1.144 2.153-1.11z"/>
		<path d="m80.171 212.41l-2.52 1.299c-0.205 0.106-0.457 0.015-0.554-0.176l-0.967-1.875c-0.098-0.19-0.028-0.449 0.177-0.556l2.886-1.487c0.205-0.105 0.457-0.013 0.555 0.178l2.56 4.965c0.102 0.198 0.042 0.441-0.177 0.555l-0.366 0.188c-0.22 0.113-0.453 0.021-0.555-0.177-0.113-0.22-0.035-0.446 0.177-0.556l-1.216-2.36zm-0.377-0.73l-0.589-1.144-2.153 1.11 0.589 1.144 2.153-1.11z"/>
		<path d="m90.716 206.97l-2.519 1.299c-0.205 0.105-0.457 0.014-0.555-0.177l-0.967-1.875c-0.098-0.19-0.027-0.449 0.178-0.555l2.885-1.488c0.205-0.105 0.457-0.013 0.555 0.178l2.56 4.965c0.102 0.198 0.042 0.442-0.177 0.555l-0.366 0.189c-0.219 0.113-0.453 0.021-0.555-0.178-0.113-0.22-0.035-0.445 0.177-0.555l-1.216-2.37zm-0.377-0.73l-0.589-1.144-2.153 1.109 0.59 1.144 2.152-1.11z"/>
		<path d="m95.989 204.25l-2.519 1.299c-0.205 0.106-0.457 0.015-0.555-0.176l-0.967-1.875c-0.098-0.19-0.027-0.449 0.178-0.555l2.886-1.488c0.205-0.105 0.457-0.013 0.555 0.178l2.56 4.965c0.102 0.198 0.042 0.441-0.177 0.555l-0.367 0.189c-0.219 0.113-0.453 0.021-0.555-0.178-0.113-0.22-0.035-0.445 0.177-0.555l-1.216-2.37zm-0.377-0.73l-0.589-1.145-2.153 1.11 0.59 1.144 2.152-1.11z"/>
		<path d="m101.26 201.54l-2.52 1.299c-0.205 0.106-0.457 0.015-0.554-0.177l-0.967-1.875c-0.098-0.189-0.028-0.449 0.177-0.555l2.886-1.487c0.205-0.105 0.457-0.013 0.555 0.178l2.56 4.965c0.102 0.198 0.042 0.441-0.177 0.555l-0.366 0.188c-0.22 0.113-0.453 0.021-0.556-0.178-0.113-0.219-0.035-0.445 0.178-0.555l-1.21-2.36zm-0.38-0.74l-0.59-1.144-2.153 1.11 0.59 1.144 2.153-1.11z"/>
		<path d="m106.53 198.82l-2.52 1.299c-0.205 0.105-0.457 0.014-0.554-0.177l-0.967-1.875c-0.098-0.19-0.028-0.449 0.177-0.555l2.886-1.487c0.205-0.106 0.457-0.014 0.555 0.177l2.56 4.965c0.103 0.198 0.043 0.442-0.177 0.556l-0.366 0.188c-0.22 0.113-0.453 0.021-0.556-0.178-0.113-0.22-0.035-0.445 0.178-0.555l-1.22-2.36zm-0.37-0.73l-0.59-1.144-2.153 1.109 0.589 1.145 2.15-1.11z"/>
		<path d="m117.08 193.38l-2.52 1.299c-0.205 0.106-0.457 0.015-0.554-0.176l-0.967-1.875c-0.098-0.19-0.028-0.449 0.177-0.556l2.886-1.487c0.205-0.105 0.457-0.013 0.555 0.178l2.56 4.965c0.103 0.198 0.043 0.441-0.177 0.555l-0.366 0.188c-0.22 0.113-0.453 0.021-0.555-0.177-0.113-0.22-0.036-0.446 0.177-0.556l-1.22-2.35zm-0.38-0.73l-0.59-1.144-2.153 1.11 0.589 1.144 2.15-1.11z"/>
		<path d="m122.35 190.66l-2.52 1.299c-0.205 0.105-0.456 0.014-0.554-0.177l-0.967-1.875c-0.099-0.19-0.028-0.449 0.177-0.555l2.886-1.487c0.205-0.105 0.457-0.014 0.555 0.178l2.56 4.965c0.103 0.197 0.043 0.441-0.177 0.555l-0.366 0.188c-0.22 0.113-0.453 0.021-0.555-0.178-0.113-0.22-0.035-0.445 0.177-0.555l-1.23-2.36zm-0.37-0.73l-0.59-1.144-2.153 1.11 0.589 1.144 2.15-1.11z"/>
		<path d="m127.62 187.94l-2.52 1.299c-0.205 0.105-0.456 0.014-0.554-0.177l-0.967-1.875c-0.099-0.19-0.028-0.449 0.177-0.555l2.886-1.488c0.205-0.105 0.457-0.013 0.555 0.178l2.56 4.965c0.102 0.198 0.042 0.441-0.177 0.555l-0.366 0.189c-0.22 0.113-0.453 0.021-0.555-0.178-0.113-0.22-0.035-0.445 0.177-0.555l-1.22-2.36zm-0.37-0.73l-0.589-1.144-2.153 1.109 0.589 1.144 2.15-1.11z"/>
		<path d="m132.9 185.23l-2.52 1.299c-0.205 0.105-0.456 0.014-0.554-0.177l-0.967-1.875c-0.099-0.19-0.028-0.449 0.177-0.556l2.886-1.487c0.205-0.105 0.457-0.013 0.555 0.178l2.56 4.965c0.102 0.198 0.042 0.441-0.177 0.555l-0.366 0.188c-0.22 0.113-0.453 0.021-0.555-0.177-0.113-0.22-0.035-0.445 0.177-0.556l-1.22-2.36zm-0.38-0.73l-0.589-1.143-2.153 1.109 0.589 1.144 2.15-1.11z"/>
	<g fill="#fff">
		<path d="m37.324 233.78l-2.52 1.299c-0.205 0.105-0.456 0.014-0.554-0.177l-0.967-1.875c-0.099-0.19-0.028-0.449 0.177-0.555l2.886-1.488c0.205-0.105 0.457-0.013 0.555 0.178l2.56 4.965c0.103 0.198 0.043 0.441-0.177 0.555l-0.366 0.189c-0.22 0.113-0.453 0.021-0.555-0.178-0.113-0.22-0.035-0.445 0.177-0.555l-1.216-2.36zm-0.377-0.73l-0.589-1.144-2.153 1.109 0.589 1.144 2.153-1.11z"/>
		<path d="m42.597 231.06l-2.52 1.299c-0.205 0.106-0.456 0.015-0.554-0.177l-0.967-1.875c-0.099-0.189-0.028-0.449 0.177-0.555l2.886-1.487c0.205-0.105 0.457-0.013 0.555 0.178l2.56 4.965c0.102 0.198 0.042 0.441-0.177 0.555l-0.366 0.188c-0.22 0.113-0.453 0.021-0.555-0.177-0.113-0.22-0.035-0.446 0.177-0.556l-1.216-2.35zm-0.377-0.73l-0.589-1.144-2.153 1.11 0.589 1.144 2.153-1.11z"/>
		<path d="m47.869 228.34l-2.52 1.299c-0.205 0.105-0.456 0.014-0.554-0.177l-0.967-1.875c-0.099-0.19-0.028-0.449 0.177-0.555l2.886-1.487c0.205-0.105 0.457-0.014 0.555 0.178l2.56 4.965c0.102 0.197 0.042 0.441-0.177 0.555l-0.366 0.188c-0.22 0.113-0.453 0.021-0.555-0.178-0.113-0.22-0.035-0.445 0.177-0.555l-1.216-2.36zm-0.377-0.73l-0.589-1.144-2.153 1.11 0.589 1.144 2.153-1.11z"/>
		<path d="m53.142 225.62l-2.52 1.299c-0.205 0.105-0.456 0.014-0.554-0.177l-0.967-1.875c-0.099-0.19-0.028-0.449 0.177-0.555l2.886-1.488c0.205-0.105 0.457-0.013 0.555 0.178l2.56 4.965c0.102 0.198 0.042 0.441-0.177 0.555l-0.366 0.189c-0.22 0.113-0.453 0.021-0.555-0.178-0.113-0.22-0.036-0.445 0.177-0.555l-1.216-2.36zm-0.377-0.73l-0.589-1.144-2.153 1.109 0.589 1.144 2.153-1.11z"/>
		<path d="m63.687 220.19l-2.52 1.299c-0.205 0.105-0.456 0.014-0.554-0.177l-0.967-1.875c-0.098-0.19-0.028-0.449 0.177-0.555l2.886-1.487c0.205-0.105 0.457-0.013 0.556 0.178l2.56 4.965c0.102 0.198 0.042 0.441-0.178 0.555l-0.366 0.188c-0.22 0.113-0.453 0.021-0.555-0.177-0.113-0.221-0.035-0.446 0.177-0.556l-1.216-2.36zm-0.377-0.73l-0.589-1.144-2.153 1.11 0.589 1.144 2.153-1.11z"/>
		<path d="m68.959 217.47l-2.519 1.299c-0.205 0.105-0.457 0.014-0.554-0.177l-0.967-1.875c-0.098-0.19-0.028-0.449 0.177-0.555l2.885-1.487c0.205-0.106 0.457-0.014 0.556 0.177l2.56 4.965c0.102 0.198 0.042 0.442-0.178 0.556l-0.366 0.188c-0.219 0.113-0.453 0.021-0.555-0.178-0.113-0.22-0.035-0.445 0.177-0.555l-1.216-2.37zm-0.377-0.73l-0.589-1.144-2.153 1.11 0.589 1.143 2.153-1.11z"/>
		<path d="m74.231 214.75l-2.519 1.299c-0.205 0.105-0.457 0.014-0.554-0.177l-0.967-1.875c-0.098-0.19-0.028-0.449 0.177-0.555l2.886-1.488c0.205-0.105 0.457-0.013 0.555 0.178l2.56 4.965c0.102 0.198 0.042 0.441-0.177 0.555l-0.367 0.189c-0.219 0.113-0.453 0.021-0.555-0.178-0.113-0.22-0.035-0.445 0.177-0.555l-1.216-2.37zm-0.377-0.73l-0.589-1.144-2.153 1.109 0.589 1.144 2.153-1.11z"/>
		<path d="m79.504 212.03l-2.52 1.299c-0.205 0.106-0.457 0.015-0.554-0.176l-0.967-1.875c-0.098-0.19-0.028-0.449 0.177-0.556l2.886-1.487c0.205-0.105 0.457-0.013 0.555 0.178l2.56 4.965c0.102 0.198 0.042 0.441-0.177 0.555l-0.366 0.188c-0.22 0.113-0.453 0.021-0.555-0.177-0.113-0.22-0.035-0.446 0.177-0.556l-1.216-2.36zm-0.377-0.73l-0.589-1.144-2.153 1.11 0.589 1.144 2.153-1.11z"/>
		<path d="m90.049 206.6l-2.519 1.299c-0.205 0.105-0.457 0.014-0.555-0.177l-0.967-1.875c-0.098-0.19-0.027-0.449 0.178-0.555l2.885-1.488c0.205-0.105 0.457-0.013 0.555 0.178l2.56 4.965c0.102 0.198 0.042 0.442-0.177 0.555l-0.366 0.189c-0.219 0.113-0.453 0.021-0.555-0.178-0.113-0.22-0.035-0.445 0.177-0.555l-1.216-2.36zm-0.377-0.74l-0.589-1.144-2.153 1.109 0.59 1.144 2.152-1.11z"/>
		<path d="m95.322 203.88l-2.519 1.299c-0.205 0.106-0.457 0.015-0.555-0.176l-0.967-1.875c-0.098-0.19-0.027-0.449 0.178-0.555l2.886-1.488c0.205-0.105 0.457-0.013 0.555 0.178l2.56 4.965c0.102 0.198 0.042 0.441-0.177 0.555l-0.367 0.189c-0.219 0.113-0.453 0.021-0.555-0.178-0.113-0.22-0.035-0.445 0.177-0.555l-1.216-2.36zm-0.377-0.73l-0.589-1.145-2.153 1.11 0.59 1.144 2.152-1.1z"/>
		<path d="m100.6 201.16l-2.52 1.299c-0.205 0.106-0.457 0.015-0.554-0.177l-0.967-1.875c-0.098-0.189-0.028-0.449 0.177-0.555l2.886-1.487c0.205-0.105 0.457-0.013 0.555 0.178l2.56 4.965c0.102 0.198 0.042 0.441-0.177 0.555l-0.366 0.188c-0.22 0.113-0.453 0.021-0.556-0.178-0.113-0.219-0.035-0.445 0.178-0.555l-1.21-2.36zm-0.38-0.73l-0.59-1.144-2.153 1.11 0.59 1.144 2.153-1.11z"/>
		<path d="m105.87 198.44l-2.52 1.299c-0.205 0.105-0.457 0.014-0.554-0.177l-0.967-1.875c-0.098-0.19-0.028-0.449 0.177-0.555l2.886-1.487c0.205-0.106 0.457-0.014 0.555 0.177l2.56 4.965c0.103 0.198 0.043 0.442-0.177 0.556l-0.366 0.188c-0.22 0.113-0.453 0.021-0.556-0.178-0.113-0.22-0.035-0.445 0.178-0.555l-1.22-2.36zm-0.38-0.73l-0.59-1.144-2.153 1.109 0.589 1.145 2.15-1.11z"/>
		<path d="m116.41 193.01l-2.52 1.299c-0.205 0.106-0.457 0.015-0.554-0.176l-0.967-1.875c-0.098-0.19-0.028-0.449 0.177-0.556l2.886-1.487c0.205-0.105 0.457-0.013 0.555 0.178l2.56 4.965c0.103 0.198 0.043 0.441-0.177 0.555l-0.366 0.188c-0.22 0.113-0.453 0.021-0.555-0.177-0.113-0.22-0.036-0.446 0.177-0.556l-1.23-2.36zm-0.37-0.74l-0.59-1.144-2.153 1.11 0.589 1.144 2.15-1.11z"/>
		<path d="m121.68 190.29l-2.52 1.299c-0.205 0.105-0.456 0.014-0.554-0.177l-0.967-1.875c-0.099-0.19-0.028-0.449 0.177-0.555l2.886-1.487c0.205-0.105 0.457-0.014 0.555 0.178l2.56 4.965c0.103 0.197 0.043 0.441-0.177 0.555l-0.366 0.188c-0.22 0.113-0.453 0.021-0.555-0.178-0.113-0.22-0.035-0.445 0.177-0.555l-1.22-2.37zm-0.37-0.73l-0.59-1.144-2.153 1.11 0.589 1.144 2.15-1.11z"/>
		<path d="m126.96 187.57l-2.52 1.299c-0.205 0.105-0.456 0.014-0.554-0.177l-0.967-1.875c-0.099-0.19-0.028-0.449 0.177-0.555l2.886-1.488c0.205-0.105 0.457-0.013 0.555 0.178l2.56 4.965c0.102 0.198 0.042 0.441-0.177 0.555l-0.366 0.189c-0.22 0.113-0.453 0.021-0.555-0.178-0.113-0.22-0.035-0.445 0.177-0.555l-1.22-2.37zm-0.38-0.73l-0.589-1.144-2.153 1.109 0.589 1.144 2.15-1.11z"/>
		<path d="m132.23 184.85l-2.52 1.299c-0.205 0.105-0.456 0.014-0.554-0.177l-0.967-1.875c-0.099-0.19-0.028-0.449 0.177-0.556l2.886-1.487c0.205-0.105 0.457-0.013 0.555 0.178l2.56 4.965c0.102 0.198 0.042 0.441-0.177 0.555l-0.366 0.188c-0.22 0.113-0.453 0.021-0.555-0.177-0.113-0.22-0.035-0.445 0.177-0.556l-1.23-2.36zm-0.38-0.73l-0.589-1.143-2.153 1.109 0.589 1.144 2.15-1.11z"/>
	</g>
		<path d="m44.46 251.44l0.916-0.472 2.748 5.331c0.121 0.234 0.087 0.419-0.177 0.555-0.264 0.137-0.434 0.058-0.555-0.177l-2.228-4.32-0.015 0.007-0.163 1.392 0.06 0.117c0.117 0.227 0.139 0.484-0.14 0.628-0.264 0.136-0.476-0.024-0.593-0.251l-0.06-0.117-1.229-0.673-0.015 0.007 2.228 4.32c0.121 0.234 0.086 0.419-0.177 0.556-0.264 0.136-0.434 0.057-0.555-0.178l-2.749-5.331 0.916-0.472 1.558 0.828 0.23-1.77z"/>
		<path d="m51.954 254.33c0.121 0.234 0.086 0.42-0.177 0.556s-0.434 0.057-0.555-0.178l-1.208-2.344-2.409-1.13-0.385-0.748c-0.121-0.234-0.087-0.418 0.177-0.555 0.264-0.136 0.435-0.057 0.556 0.178l0.256 0.497 1.798 0.845 0.355-1.955-0.256-0.497c-0.121-0.234-0.086-0.419 0.177-0.555s0.435-0.057 0.555 0.178l0.385 0.747-0.476 2.617 1.207 2.34z"/>
		<path d="m60.661 243.57c-0.121-0.234-0.086-0.419 0.177-0.555 0.264-0.137 0.434-0.058 0.555 0.177l2.749 5.332-0.967 0.499-4.177-3.409-0.003-0.007-0.015 0.007 2.076 4.027c0.121 0.234 0.086 0.419-0.178 0.556-0.264 0.136-0.434 0.057-0.555-0.178l-2.749-5.331 0.967-0.498 4.203 3.46-0.007 0.004 0.014-0.008-2.09-4.08z"/>
		<path d="m64.476 241.6c-0.043-0.228-0.053-0.445 0.182-0.565 0.241-0.125 0.424 0.014 0.573 0.177l3.97 4.229c0.142 0.15 0.042 0.442-0.163 0.548-0.227 0.117-0.442-0.012-0.584-0.162l-0.724-0.738-1.56 0.804 0.175 1.021c0.039 0.203 0.021 0.453-0.207 0.57-0.205 0.105-0.501 0.019-0.541-0.185l-1.121-5.7zm1.083 1.16l-0.015 0.008 0.452 2.279 1.15-0.593-1.587-1.7z"/>
		<path d="m70.823 237.86l0.915-0.472 2.749 5.331c0.121 0.234 0.086 0.419-0.178 0.555s-0.434 0.057-0.555-0.178l-2.228-4.32-0.015 0.008-0.163 1.391 0.06 0.117c0.117 0.227 0.138 0.485-0.14 0.629-0.264 0.136-0.476-0.024-0.593-0.251l-0.06-0.117-1.229-0.674-0.015 0.008 2.228 4.32c0.121 0.234 0.086 0.419-0.178 0.555s-0.434 0.057-0.555-0.178l-2.749-5.331 0.916-0.472 1.558 0.829 0.232-1.77z"/>
		<path d="m79.204 239.82c0.19-0.099 0.419-0.087 0.556 0.177 0.136 0.265 0.013 0.457-0.178 0.556l-3.251 1.676-2.938-5.697 3.251-1.676c0.19-0.099 0.42-0.087 0.556 0.177 0.136 0.263 0.013 0.456-0.178 0.555l-2.52 1.299 0.902 1.75 1.077-0.555c0.19-0.098 0.419-0.086 0.555 0.178s0.013 0.457-0.177 0.555l-1.077 0.555 0.902 1.75 2.52-1.33z"/>
	<g fill="#fff">
		<path d="m43.845 251.11l0.916-0.472 2.748 5.331c0.121 0.234 0.087 0.419-0.177 0.555-0.264 0.137-0.434 0.058-0.555-0.177l-2.228-4.32-0.015 0.007-0.163 1.392 0.06 0.117c0.117 0.227 0.139 0.484-0.14 0.628-0.264 0.136-0.476-0.024-0.593-0.251l-0.06-0.117-1.229-0.673-0.015 0.007 2.228 4.32c0.121 0.234 0.086 0.419-0.177 0.556-0.264 0.136-0.434 0.057-0.555-0.178l-2.749-5.331 0.916-0.472 1.558 0.828 0.23-1.76z"/>
		<path d="m51.339 254c0.121 0.234 0.086 0.42-0.177 0.556s-0.434 0.057-0.555-0.178l-1.208-2.344-2.409-1.13-0.385-0.748c-0.121-0.234-0.087-0.418 0.177-0.555 0.264-0.136 0.435-0.057 0.556 0.178l0.256 0.497 1.798 0.845 0.355-1.955-0.256-0.497c-0.121-0.234-0.086-0.419 0.177-0.555s0.435-0.057 0.555 0.178l0.385 0.747-0.476 2.617 1.207 2.35z"/>
		<path d="m60.046 243.23c-0.121-0.234-0.086-0.419 0.177-0.555 0.264-0.137 0.434-0.058 0.555 0.177l2.749 5.332-0.967 0.499-4.177-3.409-0.003-0.007-0.015 0.007 2.076 4.027c0.121 0.234 0.086 0.419-0.178 0.556-0.264 0.136-0.434 0.057-0.555-0.178l-2.749-5.331 0.967-0.498 4.203 3.46-0.007 0.004 0.014-0.008-2.09-4.08z"/>
		<path d="m63.86 241.27c-0.043-0.228-0.053-0.445 0.182-0.565 0.241-0.125 0.424 0.014 0.573 0.177l3.97 4.229c0.142 0.15 0.042 0.442-0.163 0.548-0.227 0.117-0.442-0.012-0.584-0.162l-0.724-0.738-1.56 0.804 0.175 1.021c0.039 0.203 0.021 0.453-0.207 0.57-0.205 0.105-0.501 0.019-0.541-0.185l-1.121-5.69zm1.083 1.16l-0.015 0.008 0.452 2.279 1.15-0.593-1.587-1.7z"/>
		<path d="m70.208 237.52l0.915-0.472 2.749 5.331c0.121 0.234 0.086 0.419-0.178 0.555s-0.434 0.057-0.555-0.178l-2.228-4.32-0.015 0.008-0.163 1.391 0.06 0.117c0.117 0.227 0.138 0.485-0.14 0.629-0.264 0.136-0.476-0.024-0.593-0.251l-0.06-0.117-1.229-0.674-0.015 0.008 2.228 4.32c0.121 0.234 0.086 0.419-0.178 0.555s-0.434 0.057-0.555-0.178l-2.749-5.331 0.916-0.472 1.558 0.829 0.232-1.77z"/>
		<path d="m78.589 239.49c0.19-0.099 0.419-0.087 0.556 0.177 0.136 0.265 0.013 0.457-0.178 0.556l-3.251 1.676-2.938-5.697 3.251-1.676c0.19-0.099 0.42-0.087 0.556 0.177 0.136 0.263 0.013 0.456-0.178 0.555l-2.52 1.299 0.902 1.75 1.077-0.555c0.19-0.098 0.419-0.086 0.555 0.178s0.013 0.457-0.177 0.555l-1.077 0.555 0.902 1.75 2.52-1.32z"/>
	</g>
	<g fill="#fff">
		<path d="m38.521 242.44l0.296-0.185c0.1 0.132 0.204 0.213 0.311 0.242 0.108 0.028 0.22 0.013 0.336-0.046 0.1-0.051 0.176-0.117 0.228-0.199 0.052-0.084 0.083-0.176 0.093-0.275 0.01-0.101-0.002-0.225-0.034-0.37-0.033-0.146-0.083-0.286-0.151-0.421-0.007-0.015-0.019-0.034-0.034-0.063-0.013 0.137-0.06 0.264-0.14 0.385s-0.185 0.214-0.315 0.28c-0.218 0.109-0.443 0.124-0.674 0.041-0.231-0.082-0.412-0.252-0.542-0.512-0.135-0.268-0.164-0.522-0.089-0.766 0.076-0.242 0.232-0.423 0.47-0.542 0.172-0.087 0.352-0.12 0.54-0.1 0.189 0.021 0.363 0.098 0.523 0.231 0.159 0.134 0.321 0.363 0.484 0.687 0.17 0.338 0.268 0.624 0.295 0.861 0.028 0.236-0.005 0.443-0.097 0.62-0.092 0.178-0.235 0.315-0.429 0.413-0.207 0.104-0.404 0.132-0.592 0.083-0.19-0.05-0.349-0.17-0.479-0.37zm0.739-1.83c-0.093-0.187-0.217-0.31-0.371-0.368-0.154-0.061-0.3-0.054-0.439 0.016-0.144 0.073-0.239 0.194-0.287 0.365-0.048 0.172-0.024 0.351 0.07 0.538 0.085 0.169 0.204 0.279 0.358 0.333s0.306 0.044 0.455-0.031c0.15-0.075 0.247-0.19 0.291-0.344 0.042-0.15 0.017-0.32-0.077-0.51z"/>
		<path d="m40.569 241.41l0.297-0.186c0.1 0.133 0.204 0.214 0.312 0.243 0.107 0.027 0.22 0.012 0.336-0.047 0.1-0.05 0.175-0.116 0.228-0.199 0.052-0.083 0.083-0.175 0.093-0.275 0.009-0.101-0.002-0.224-0.035-0.369-0.033-0.146-0.083-0.286-0.151-0.421-0.007-0.015-0.019-0.035-0.034-0.063-0.013 0.136-0.059 0.264-0.139 0.385-0.08 0.12-0.185 0.214-0.315 0.28-0.219 0.109-0.443 0.123-0.675 0.04-0.23-0.082-0.411-0.252-0.542-0.511-0.135-0.269-0.165-0.523-0.088-0.766 0.076-0.242 0.232-0.423 0.47-0.543 0.172-0.086 0.352-0.12 0.54-0.099 0.189 0.021 0.363 0.098 0.523 0.231 0.16 0.134 0.321 0.363 0.484 0.687 0.17 0.338 0.268 0.624 0.295 0.861 0.027 0.235-0.005 0.442-0.097 0.62-0.092 0.177-0.235 0.315-0.429 0.413-0.207 0.104-0.403 0.131-0.592 0.083-0.191-0.04-0.35-0.16-0.481-0.36zm0.741-1.83c-0.094-0.186-0.217-0.309-0.371-0.367-0.154-0.061-0.301-0.055-0.44 0.016-0.144 0.072-0.24 0.194-0.287 0.365-0.047 0.172-0.024 0.35 0.07 0.537 0.085 0.17 0.204 0.279 0.358 0.333 0.154 0.055 0.306 0.044 0.454-0.03 0.15-0.076 0.247-0.19 0.291-0.345 0.043-0.16 0.018-0.34-0.075-0.52z"/>
		<path d="m42.619 240.38l0.297-0.186c0.1 0.133 0.204 0.214 0.311 0.242 0.108 0.028 0.219 0.013 0.336-0.046 0.099-0.05 0.175-0.116 0.228-0.199 0.052-0.084 0.083-0.175 0.093-0.275 0.009-0.101-0.002-0.225-0.035-0.369-0.033-0.146-0.083-0.286-0.151-0.421-0.007-0.015-0.019-0.035-0.034-0.063-0.013 0.136-0.059 0.263-0.139 0.384s-0.185 0.215-0.316 0.28c-0.218 0.11-0.442 0.124-0.674 0.041-0.23-0.082-0.411-0.252-0.542-0.511-0.135-0.269-0.164-0.523-0.088-0.766s0.232-0.424 0.47-0.543c0.171-0.086 0.352-0.12 0.54-0.099 0.189 0.02 0.363 0.098 0.523 0.231 0.16 0.134 0.321 0.363 0.484 0.686 0.17 0.338 0.268 0.624 0.295 0.861 0.028 0.236-0.005 0.443-0.097 0.621-0.092 0.177-0.234 0.314-0.429 0.412-0.207 0.104-0.404 0.132-0.593 0.083s-0.348-0.14-0.479-0.34zm0.739-1.83c-0.093-0.187-0.217-0.309-0.371-0.367-0.154-0.061-0.3-0.055-0.44 0.016-0.144 0.072-0.239 0.193-0.287 0.365s-0.024 0.35 0.07 0.537c0.085 0.169 0.204 0.279 0.357 0.333 0.155 0.054 0.306 0.044 0.455-0.031 0.15-0.075 0.247-0.189 0.29-0.344 0.046-0.16 0.02-0.33-0.074-0.51z"/>
		<path d="m44.668 239.35l0.297-0.185c0.1 0.132 0.204 0.213 0.311 0.242 0.107 0.027 0.22 0.012 0.336-0.047 0.1-0.05 0.176-0.116 0.228-0.199s0.083-0.175 0.093-0.275-0.002-0.224-0.035-0.369c-0.033-0.146-0.083-0.286-0.151-0.421-0.008-0.015-0.019-0.034-0.034-0.063-0.013 0.137-0.06 0.264-0.14 0.385s-0.185 0.214-0.315 0.28c-0.218 0.109-0.443 0.124-0.674 0.04-0.231-0.082-0.412-0.252-0.542-0.511-0.135-0.269-0.165-0.522-0.089-0.766 0.076-0.242 0.232-0.423 0.47-0.542 0.172-0.087 0.352-0.121 0.54-0.1 0.189 0.021 0.363 0.098 0.523 0.231 0.159 0.134 0.321 0.363 0.484 0.687 0.17 0.338 0.268 0.624 0.295 0.861 0.027 0.236-0.005 0.443-0.097 0.62-0.092 0.178-0.235 0.315-0.43 0.413-0.206 0.104-0.403 0.131-0.592 0.083-0.188-0.05-0.347-0.17-0.478-0.36zm0.74-1.83c-0.093-0.187-0.217-0.31-0.371-0.368-0.154-0.061-0.301-0.054-0.439 0.016-0.144 0.073-0.24 0.194-0.287 0.365-0.048 0.172-0.024 0.351 0.069 0.538 0.085 0.169 0.204 0.279 0.358 0.332 0.154 0.055 0.306 0.045 0.455-0.03 0.15-0.075 0.247-0.19 0.291-0.345 0.043-0.17 0.018-0.34-0.076-0.52z"/>
	</g>
<metadata><rdf:RDF><cc:Work><dc:format>image/svg+xml</dc:format><dc:type rdf:resource="http://purl.org/dc/dcmitype/StillImage"/><cc:license rdf:resource="http://creativecommons.org/licenses/publicdomain/"/><dc:publisher><cc:Agent rdf:about="http://openclipart.org/"><dc:title>Openclipart</dc:title></cc:Agent></dc:publisher><dc:title>take a credit card</dc:title><dc:date>2013-09-06T01:07:34</dc:date><dc:description>pay by a credit card</dc:description><dc:source>http://openclipart.org/detail/183100/take-a-credit-card-by-belier-183100</dc:source><dc:creator><cc:Agent><dc:title>belier</dc:title></cc:Agent></dc:creator><dc:subject><rdf:Bag><rdf:li>carte de cr&#xC3;&#xA9;dit</rdf:li><rdf:li>clipart_issue</rdf:li><rdf:li>credit card</rdf:li><rdf:li>faire des courses</rdf:li><rdf:li>online</rdf:li><rdf:li>pay</rdf:li><rdf:li>payer</rdf:li><rdf:li>payment</rdf:li><rdf:li>shopping</rdf:li><rdf:li>shopping online</rdf:li><rdf:li>take</rdf:li><rdf:li>visa card</rdf:li></rdf:Bag></dc:subject></cc:Work><cc:License rdf:about="http://creativecommons.org/licenses/publicdomain/"><cc:permits rdf:resource="http://creativecommons.org/ns#Reproduction"/><cc:permits rdf:resource="http://creativecommons.org/ns#Distribution"/><cc:permits rdf:resource="http://creativecommons.org/ns#DerivativeWorks"/></cc:License></rdf:RDF></metadata></svg>
